<svg viewBox="0 0 213 69" fill="none" xmlns="http://www.w3.org/2000/svg">
<rect width="213" height="69" fill="white"/>
<path d="M89.0074 38.9456V41H79.9131V39.2469L84.2137 34.6358C84.6459 34.1549 84.9868 33.7318 85.2364 33.3666C85.486 32.9953 85.6655 32.6635 85.7751 32.3713C85.8908 32.0731 85.9486 31.79 85.9486 31.5222C85.9486 31.1204 85.8816 30.7765 85.7477 30.4904C85.6138 30.1982 85.4159 29.973 85.1542 29.8147C84.8985 29.6564 84.582 29.5773 84.2046 29.5773C83.8028 29.5773 83.4559 29.6747 83.1637 29.8695C82.8776 30.0643 82.6584 30.3352 82.5062 30.6821C82.3602 31.0291 82.2871 31.4217 82.2871 31.86H79.6483C79.6483 31.0687 79.837 30.3443 80.2144 29.6869C80.5918 29.0234 81.1244 28.4968 81.8123 28.1072C82.5002 27.7116 83.3159 27.5137 84.2594 27.5137C85.1907 27.5137 85.976 27.6659 86.6151 27.9703C87.2604 28.2685 87.7474 28.7007 88.0761 29.2668C88.4109 29.8269 88.5783 30.4965 88.5783 31.2756C88.5783 31.7139 88.5083 32.1431 88.3683 32.5631C88.2283 32.977 88.0274 33.391 87.7656 33.8049C87.51 34.2127 87.1995 34.6267 86.8343 35.0467C86.469 35.4667 86.0642 35.9019 85.6199 36.3524L83.3098 38.9456H89.0074ZM99.9645 36.0328V38.0964H90.3862L90.2583 36.4985L95.8008 27.7055H97.8917L95.6273 31.4948L92.8698 36.0328H99.9645ZM98.4579 27.7055V41H95.8282V27.7055H98.4579ZM107.178 27.7055L102.302 42.1414H100.348L105.224 27.7055H107.178ZM117.359 27.7055V29.1208L112.218 41H109.442L114.583 29.7599H107.963V27.7055H117.359ZM130.918 37.5211C130.918 37.2837 130.882 37.0707 130.808 36.882C130.742 36.6872 130.614 36.5107 130.425 36.3524C130.236 36.188 129.971 36.0267 129.631 35.8685C129.29 35.7102 128.848 35.5458 128.307 35.3754C127.704 35.1806 127.132 34.9615 126.59 34.718C126.054 34.4745 125.58 34.1914 125.166 33.8688C124.758 33.5401 124.435 33.1596 124.198 32.7274C123.966 32.2952 123.851 31.7931 123.851 31.2209C123.851 30.6669 123.973 30.1647 124.216 29.7143C124.459 29.2577 124.8 28.8681 125.239 28.5455C125.677 28.2168 126.194 27.9642 126.791 27.7876C127.394 27.6111 128.054 27.5229 128.772 27.5229C129.752 27.5229 130.608 27.6994 131.338 28.0524C132.069 28.4055 132.635 28.8894 133.036 29.5042C133.444 30.1191 133.648 30.8221 133.648 31.6135H130.927C130.927 31.2239 130.845 30.883 130.681 30.5908C130.522 30.2925 130.279 30.0582 129.95 29.8877C129.628 29.7173 129.22 29.6321 128.727 29.6321C128.252 29.6321 127.856 29.7051 127.54 29.8512C127.223 29.9912 126.986 30.183 126.827 30.4265C126.669 30.6639 126.59 30.9317 126.59 31.23C126.59 31.4552 126.645 31.6591 126.754 31.8417C126.87 32.0244 127.04 32.1948 127.266 32.3531C127.491 32.5113 127.768 32.6605 128.097 32.8005C128.425 32.9405 128.806 33.0775 129.238 33.2114C129.962 33.4305 130.598 33.6771 131.146 33.951C131.7 34.2249 132.163 34.5323 132.534 34.8732C132.906 35.2141 133.186 35.6006 133.374 36.0328C133.563 36.465 133.657 36.955 133.657 37.5029C133.657 38.0812 133.545 38.5986 133.319 39.0551C133.094 39.5117 132.769 39.8982 132.342 40.2147C131.916 40.5313 131.408 40.7717 130.818 40.9361C130.227 41.1004 129.567 41.1826 128.836 41.1826C128.179 41.1826 127.531 41.0974 126.891 40.927C126.252 40.7504 125.671 40.4856 125.147 40.1326C124.63 39.7795 124.216 39.3291 123.906 38.7812C123.595 38.2334 123.44 37.5851 123.44 36.8363H126.188C126.188 37.2503 126.252 37.6003 126.38 37.8864C126.508 38.1725 126.687 38.4038 126.919 38.5803C127.156 38.7569 127.436 38.8847 127.759 38.9638C128.087 39.043 128.447 39.0825 128.836 39.0825C129.311 39.0825 129.701 39.0156 130.005 38.8816C130.315 38.7477 130.544 38.5621 130.69 38.3247C130.842 38.0873 130.918 37.8194 130.918 37.5211ZM141.199 38.6351V31.1204H143.829V41H141.355L141.199 38.6351ZM141.492 36.6081L142.268 36.5898C142.268 37.2472 142.192 37.859 142.039 38.4251C141.887 38.9851 141.659 39.4721 141.355 39.886C141.05 40.2939 140.667 40.6135 140.204 40.8448C139.742 41.07 139.197 41.1826 138.57 41.1826C138.089 41.1826 137.644 41.1157 137.237 40.9817C136.835 40.8417 136.488 40.6256 136.196 40.3334C135.91 40.0352 135.684 39.6547 135.52 39.1921C135.362 38.7234 135.283 38.1603 135.283 37.5029V31.1204H137.912V37.5211C137.912 37.8133 137.946 38.0599 138.013 38.2607C138.086 38.4616 138.186 38.626 138.314 38.7538C138.442 38.8816 138.591 38.9729 138.761 39.0277C138.938 39.0825 139.133 39.1099 139.346 39.1099C139.888 39.1099 140.314 39.0003 140.624 38.7812C140.941 38.5621 141.163 38.2638 141.291 37.8864C141.425 37.5029 141.492 37.0768 141.492 36.6081ZM148.468 33.0196V44.7984H145.838V31.1204H148.276L148.468 33.0196ZM154.722 35.9506V36.1424C154.722 36.8607 154.637 37.5272 154.467 38.142C154.302 38.7569 154.059 39.2925 153.736 39.7491C153.413 40.1995 153.012 40.5526 152.531 40.8083C152.056 41.0578 151.508 41.1826 150.887 41.1826C150.285 41.1826 149.761 41.0609 149.317 40.8174C148.872 40.5739 148.498 40.233 148.194 39.7947C147.895 39.3504 147.655 38.836 147.472 38.2516C147.29 37.6672 147.15 37.0403 147.052 36.3707V35.8685C147.15 35.1502 147.29 34.4927 147.472 33.8962C147.655 33.2936 147.895 32.7731 148.194 32.3348C148.498 31.8904 148.869 31.5465 149.308 31.303C149.752 31.0595 150.272 30.9378 150.869 30.9378C151.496 30.9378 152.047 31.0565 152.522 31.2939C153.003 31.5313 153.404 31.8722 153.727 32.3166C154.056 32.7609 154.302 33.2905 154.467 33.9053C154.637 34.5201 154.722 35.2019 154.722 35.9506ZM152.083 36.1424V35.9506C152.083 35.5306 152.047 35.1441 151.974 34.791C151.907 34.4319 151.797 34.1184 151.645 33.8505C151.499 33.5827 151.304 33.3757 151.061 33.2296C150.823 33.0775 150.534 33.0014 150.193 33.0014C149.834 33.0014 149.527 33.0592 149.271 33.1749C149.022 33.2905 148.818 33.4579 148.659 33.6771C148.501 33.8962 148.382 34.1579 148.303 34.4623C148.224 34.7667 148.175 35.1106 148.157 35.4941V36.7633C148.188 37.2137 148.273 37.6185 148.413 37.9777C148.553 38.3307 148.769 38.6108 149.061 38.8177C149.353 39.0247 149.737 39.1282 150.212 39.1282C150.559 39.1282 150.851 39.0521 151.088 38.8999C151.326 38.7416 151.517 38.5255 151.663 38.2516C151.816 37.9777 151.922 37.6611 151.983 37.302C152.05 36.9429 152.083 36.5563 152.083 36.1424ZM158.986 33.0196V44.7984H156.357V31.1204H158.795L158.986 33.0196ZM165.241 35.9506V36.1424C165.241 36.8607 165.156 37.5272 164.985 38.142C164.821 38.7569 164.577 39.2925 164.255 39.7491C163.932 40.1995 163.53 40.5526 163.05 40.8083C162.575 41.0578 162.027 41.1826 161.406 41.1826C160.803 41.1826 160.28 41.0609 159.835 40.8174C159.391 40.5739 159.017 40.233 158.712 39.7947C158.414 39.3504 158.174 38.836 157.991 38.2516C157.808 37.6672 157.668 37.0403 157.571 36.3707V35.8685C157.668 35.1502 157.808 34.4927 157.991 33.8962C158.174 33.2936 158.414 32.7731 158.712 32.3348C159.017 31.8904 159.388 31.5465 159.826 31.303C160.271 31.0595 160.791 30.9378 161.388 30.9378C162.015 30.9378 162.566 31.0565 163.04 31.2939C163.521 31.5313 163.923 31.8722 164.246 32.3166C164.574 32.7609 164.821 33.2905 164.985 33.9053C165.156 34.5201 165.241 35.2019 165.241 35.9506ZM162.602 36.1424V35.9506C162.602 35.5306 162.566 35.1441 162.493 34.791C162.426 34.4319 162.316 34.1184 162.164 33.8505C162.018 33.5827 161.823 33.3757 161.579 33.2296C161.342 33.0775 161.053 33.0014 160.712 33.0014C160.353 33.0014 160.045 33.0592 159.79 33.1749C159.54 33.2905 159.336 33.4579 159.178 33.6771C159.02 33.8962 158.901 34.1579 158.822 34.4623C158.743 34.7667 158.694 35.1106 158.676 35.4941V36.7633C158.706 37.2137 158.792 37.6185 158.932 37.9777C159.072 38.3307 159.288 38.6108 159.58 38.8177C159.872 39.0247 160.256 39.1282 160.73 39.1282C161.077 39.1282 161.369 39.0521 161.607 38.8999C161.844 38.7416 162.036 38.5255 162.182 38.2516C162.334 37.9777 162.441 37.6611 162.502 37.302C162.569 36.9429 162.602 36.5563 162.602 36.1424ZM166.455 36.1606V35.9689C166.455 35.2445 166.559 34.578 166.766 33.9692C166.973 33.3544 167.274 32.8218 167.67 32.3713C168.065 31.9209 168.552 31.5709 169.131 31.3213C169.709 31.0656 170.372 30.9378 171.121 30.9378C171.87 30.9378 172.537 31.0656 173.121 31.3213C173.705 31.5709 174.195 31.9209 174.591 32.3713C174.993 32.8218 175.297 33.3544 175.504 33.9692C175.711 34.578 175.814 35.2445 175.814 35.9689V36.1606C175.814 36.8789 175.711 37.5455 175.504 38.1603C175.297 38.769 174.993 39.3017 174.591 39.7582C174.195 40.2087 173.708 40.5587 173.13 40.8083C172.552 41.0578 171.888 41.1826 171.139 41.1826C170.391 41.1826 169.724 41.0578 169.14 40.8083C168.562 40.5587 168.072 40.2087 167.67 39.7582C167.274 39.3017 166.973 38.769 166.766 38.1603C166.559 37.5455 166.455 36.8789 166.455 36.1606ZM169.085 35.9689V36.1606C169.085 36.5746 169.122 36.9611 169.195 37.3203C169.268 37.6794 169.383 37.9959 169.542 38.2699C169.706 38.5377 169.919 38.7477 170.181 38.8999C170.443 39.0521 170.762 39.1282 171.139 39.1282C171.505 39.1282 171.818 39.0521 172.08 38.8999C172.342 38.7477 172.552 38.5377 172.71 38.2699C172.868 37.9959 172.984 37.6794 173.057 37.3203C173.136 36.9611 173.176 36.5746 173.176 36.1606V35.9689C173.176 35.5671 173.136 35.1897 173.057 34.8367C172.984 34.4775 172.865 34.161 172.701 33.8871C172.543 33.607 172.333 33.3879 172.071 33.2296C171.809 33.0714 171.493 32.9922 171.121 32.9922C170.75 32.9922 170.433 33.0714 170.172 33.2296C169.916 33.3879 169.706 33.607 169.542 33.8871C169.383 34.161 169.268 34.4775 169.195 34.8367C169.122 35.1897 169.085 35.5671 169.085 35.9689ZM180.06 33.2753V41H177.431V31.1204H179.905L180.06 33.2753ZM183.037 31.0565L182.991 33.4944C182.864 33.4762 182.708 33.461 182.526 33.4488C182.349 33.4305 182.188 33.4214 182.042 33.4214C181.67 33.4214 181.348 33.4701 181.074 33.5675C180.806 33.6588 180.581 33.7958 180.398 33.9784C180.222 34.161 180.088 34.3832 179.996 34.6449C179.911 34.9067 179.862 35.2049 179.85 35.5397L179.321 35.3754C179.321 34.7362 179.385 34.1488 179.512 33.6131C179.64 33.0714 179.826 32.5996 180.069 32.1979C180.319 31.7961 180.623 31.4856 180.983 31.2665C181.342 31.0474 181.753 30.9378 182.215 30.9378C182.361 30.9378 182.51 30.95 182.663 30.9743C182.815 30.9926 182.94 31.02 183.037 31.0565ZM189.575 31.1204V32.9831H183.822V31.1204H189.575ZM185.247 28.6825H187.876V38.0233C187.876 38.3094 187.913 38.5286 187.986 38.6808C188.065 38.8329 188.181 38.9395 188.333 39.0003C188.485 39.0551 188.677 39.0825 188.908 39.0825C189.072 39.0825 189.219 39.0764 189.346 39.0643C189.48 39.046 189.593 39.0277 189.684 39.0095L189.693 40.9452C189.468 41.0183 189.225 41.0761 188.963 41.1187C188.701 41.1613 188.412 41.1826 188.095 41.1826C187.517 41.1826 187.012 41.0883 186.58 40.8996C186.154 40.7048 185.825 40.3943 185.594 39.9682C185.362 39.5421 185.247 38.9821 185.247 38.2881V28.6825Z" fill="#192E50"/>
<path opacity="0.2" d="M29.75 35.4375V45.5C29.75 46.2625 30.0529 46.9938 30.5921 47.5329C31.1312 48.0721 31.8625 48.375 32.625 48.375H35.5C36.2625 48.375 36.9938 48.0721 37.5329 47.5329C38.0721 46.9938 38.375 46.2625 38.375 45.5V38.3125C38.375 37.55 38.0721 36.8187 37.5329 36.2796C36.9938 35.7404 36.2625 35.4375 35.5 35.4375H29.75Z" fill="#95BE3F"/>
<path opacity="0.2" d="M64.5195 35.4375H58.7695C58.007 35.4375 57.2758 35.7404 56.7366 36.2796C56.1974 36.8187 55.8945 37.55 55.8945 38.3125V45.5C55.8945 46.2625 56.1974 46.9938 56.7366 47.5329C57.2758 48.0721 58.007 48.375 58.7695 48.375H61.6445C62.407 48.375 63.1383 48.0721 63.6775 47.5329C64.2166 46.9938 64.5195 46.2625 64.5195 45.5V35.4375Z" fill="#95BE3F"/>
<path d="M64.5195 35.4374H58.7695C58.007 35.4374 57.2758 35.7403 56.7366 36.2794C56.1974 36.8186 55.8945 37.5499 55.8945 38.3124V45.4999C55.8945 46.2624 56.1974 46.9936 56.7366 47.5328C57.2758 48.072 58.007 48.3749 58.7695 48.3749H61.6445C62.407 48.3749 63.1383 48.072 63.6775 47.5328C64.2166 46.9936 64.5195 46.2624 64.5195 45.4999V35.4374ZM64.5195 35.4374C64.5196 33.1599 64.0687 30.905 63.1928 28.8027C62.317 26.7004 61.0335 24.7924 59.4164 23.1887C57.7993 21.585 55.8807 20.3173 53.7712 19.459C51.6617 18.6006 49.4032 18.1684 47.1258 18.1874C44.8499 18.1708 42.5933 18.6047 40.4859 19.4642C38.3785 20.3236 36.462 21.5916 34.8468 23.1951C33.2316 24.7986 31.9498 26.7058 31.075 28.8069C30.2003 30.908 29.7499 33.1614 29.75 35.4374V45.4999C29.75 46.2624 30.0529 46.9936 30.5921 47.5328C31.1312 48.072 31.8625 48.3749 32.625 48.3749H35.5C36.2625 48.3749 36.9938 48.072 37.5329 47.5328C38.0721 46.9936 38.375 46.2624 38.375 45.4999V38.3124C38.375 37.5499 38.0721 36.8186 37.5329 36.2794C36.9938 35.7403 36.2625 35.4374 35.5 35.4374H29.75" stroke="#95BE3F" stroke-width="2" stroke-linecap="round" stroke-linejoin="round"/>
</svg>
