<svg viewBox="0 0 39 38" fill="none" xmlns="http://www.w3.org/2000/svg">
<circle cx="19.5283" cy="19" r="19" fill="white" fill-opacity="0.24"/>
<path d="M16.9674 19.7614L20.9296 23.7236C21.0165 23.8112 21.1198 23.8807 21.2337 23.9281C21.3476 23.9756 21.4697 24 21.5931 24C21.7165 24 21.8386 23.9756 21.9525 23.9281C22.0664 23.8807 22.1697 23.8112 22.2566 23.7236C22.4306 23.5485 22.5283 23.3116 22.5283 23.0648C22.5283 22.8179 22.4306 22.581 22.2566 22.406L18.9485 19.0979L22.2566 15.7898C22.4306 15.6147 22.5283 15.3779 22.5283 15.131C22.5283 14.8841 22.4306 14.6473 22.2566 14.4722C22.1693 14.3856 22.0657 14.3171 21.9519 14.2705C21.838 14.224 21.7161 14.2005 21.5931 14.2012C21.4701 14.2005 21.3482 14.224 21.2343 14.2705C21.1205 14.3171 21.0169 14.3856 20.9296 14.4722L16.9674 18.4344C16.8798 18.5213 16.8103 18.6246 16.7628 18.7385C16.7154 18.8524 16.691 18.9745 16.691 19.0979C16.691 19.2212 16.7154 19.3434 16.7628 19.4573C16.8103 19.5711 16.8798 19.6745 16.9674 19.7614Z" fill="white"/>
</svg>
