<svg viewBox="0 0 38 38" fill="none" xmlns="http://www.w3.org/2000/svg">
<circle cx="19" cy="19" r="19" transform="rotate(-180 19 19)" fill="#95BE3F"/>
<path d="M21.5609 18.2386L17.5987 14.2764C17.5118 14.1888 17.4085 14.1193 17.2946 14.0719C17.1807 14.0244 17.0586 14 16.9352 14C16.8119 14 16.6897 14.0244 16.5758 14.0719C16.462 14.1193 16.3586 14.1888 16.2717 14.2764C16.0977 14.4515 16 14.6884 16 14.9352C16 15.1821 16.0977 15.419 16.2717 15.594L19.5798 18.9021L16.2717 22.2102C16.0977 22.3853 16 22.6221 16 22.869C16 23.1159 16.0977 23.3527 16.2717 23.5278C16.3591 23.6144 16.4626 23.6829 16.5765 23.7295C16.6903 23.776 16.8122 23.7995 16.9352 23.7988C17.0582 23.7995 17.1801 23.776 17.294 23.7295C17.4078 23.6829 17.5114 23.6144 17.5987 23.5278L21.5609 19.5656C21.6485 19.4787 21.718 19.3754 21.7655 19.2615C21.8129 19.1476 21.8373 19.0255 21.8373 18.9021C21.8373 18.7788 21.8129 18.6566 21.7655 18.5427C21.718 18.4289 21.6485 18.3255 21.5609 18.2386Z" fill="white"/>
</svg>
