<svg viewBox="0 0 33 33" fill="none" xmlns="http://www.w3.org/2000/svg">
<path opacity="0.2" d="M16.877 20.5117C21.2952 20.5117 24.877 16.93 24.877 12.5117C24.877 8.09344 21.2952 4.51172 16.877 4.51172C12.4587 4.51172 8.87695 8.09344 8.87695 12.5117C8.87695 16.93 12.4587 20.5117 16.877 20.5117Z" fill="#95BE3F"/>
<path d="M16.877 20.5117C21.2952 20.5117 24.877 16.93 24.877 12.5117C24.877 8.09344 21.2952 4.51172 16.877 4.51172C12.4587 4.51172 8.87695 8.09344 8.87695 12.5117C8.87695 16.93 12.4587 20.5117 16.877 20.5117Z" stroke="#95BE3F" stroke-width="2" stroke-miterlimit="10"/>
<path d="M4.75195 27.5119C5.98062 25.3833 7.74799 23.6157 9.8764 22.3867C12.0048 21.1577 14.4192 20.5107 16.877 20.5107C19.3347 20.5107 21.7491 21.1577 23.8775 22.3867C26.0059 23.6157 27.7733 25.3833 29.002 27.5119" stroke="#95BE3F" stroke-width="2" stroke-linecap="round" stroke-linejoin="round"/>
</svg>
