<svg viewBox="0 0 33 33" fill="none" xmlns="http://www.w3.org/2000/svg">
<path opacity="0.2" d="M16.0645 28.123C22.6919 28.123 28.0645 22.7505 28.0645 16.123C28.0645 9.49563 22.6919 4.12305 16.0645 4.12305C9.43704 4.12305 4.06445 9.49563 4.06445 16.123C4.06445 22.7505 9.43704 28.123 16.0645 28.123Z" fill="#95BE3F"/>
<path d="M16 19V9" stroke="#95BE3F" stroke-width="2" stroke-linecap="round"/>
<path d="M16.0645 28.123C22.6919 28.123 28.0645 22.7505 28.0645 16.123C28.0645 9.49563 22.6919 4.12305 16.0645 4.12305C9.43704 4.12305 4.06445 9.49563 4.06445 16.123C4.06445 22.7505 9.43704 28.123 16.0645 28.123Z" stroke="#95BE3F" stroke-width="2" stroke-linecap="round" stroke-linejoin="round"/>
<path d="M16.0645 24.123C16.8929 24.123 17.5645 23.4515 17.5645 22.623C17.5645 21.7946 16.8929 21.123 16.0645 21.123C15.236 21.123 14.5645 21.7946 14.5645 22.623C14.5645 23.4515 15.236 24.123 16.0645 24.123Z" fill="#95BE3F"/>
</svg>
