<svg viewBox="0 0 33 33" fill="none" xmlns="http://www.w3.org/2000/svg">
<path opacity="0.2" d="M16.0645 28.5391C22.6919 28.5391 28.0645 23.1665 28.0645 16.5391C28.0645 9.91165 22.6919 4.53906 16.0645 4.53906C9.43704 4.53906 4.06445 9.91165 4.06445 16.5391C4.06445 23.1665 9.43704 28.5391 16.0645 28.5391Z" fill="#95BE3F"/>
<path d="M16.0645 28.5391C22.6919 28.5391 28.0645 23.1665 28.0645 16.5391C28.0645 9.91165 22.6919 4.53906 16.0645 4.53906C9.43704 4.53906 4.06445 9.91165 4.06445 16.5391C4.06445 23.1665 9.43704 28.5391 16.0645 28.5391Z" stroke="#95BE3F" stroke-width="2" stroke-linecap="round" stroke-linejoin="round"/>
<path d="M16.0645 24.5391C16.8929 24.5391 17.5645 23.8675 17.5645 23.0391C17.5645 22.2106 16.8929 21.5391 16.0645 21.5391C15.236 21.5391 14.5645 22.2106 14.5645 23.0391C14.5645 23.8675 15.236 24.5391 16.0645 24.5391Z" fill="#95BE3F"/>
<path d="M16.0645 18.5391V17.5391C16.7567 17.5391 17.4334 17.3338 18.0089 16.9492C18.5845 16.5646 19.0331 16.018 19.298 15.3785C19.5629 14.7389 19.6323 14.0352 19.4972 13.3562C19.3622 12.6773 19.0288 12.0537 18.5393 11.5642C18.0498 11.0747 17.4262 10.7414 16.7473 10.6063C16.0683 10.4713 15.3646 10.5406 14.7251 10.8055C14.0855 11.0704 13.5389 11.519 13.1543 12.0946C12.7697 12.6701 12.5645 13.3468 12.5645 14.0391" stroke="#95BE3F" stroke-width="2" stroke-linecap="round" stroke-linejoin="round"/>
</svg>
