<svg viewBox="0 0 33 33" fill="none" xmlns="http://www.w3.org/2000/svg">
<path opacity="0.2" d="M11.627 16.5551C12.656 18.6801 14.3743 20.3941 16.502 21.4176C16.6589 21.4919 16.8325 21.5241 17.0056 21.5109C17.1788 21.4978 17.3455 21.4398 17.4895 21.3426L20.6145 19.2551C20.7525 19.1615 20.9121 19.1043 21.0782 19.089C21.2443 19.0737 21.4116 19.1008 21.5645 19.1676L27.4145 21.6801C27.6144 21.7633 27.7814 21.91 27.8898 22.0974C27.9983 22.2849 28.042 22.5028 28.0145 22.7176C27.829 24.1648 27.1227 25.4948 26.0275 26.4588C24.9324 27.4228 23.5235 27.9548 22.0645 27.9551C17.5558 27.9551 13.2318 26.1641 10.0436 22.9759C6.85552 19.7878 5.06445 15.4638 5.06445 10.9551C5.06478 9.49612 5.59672 8.08722 6.56074 6.99206C7.52475 5.89691 8.85478 5.19053 10.302 5.00512C10.5168 4.97753 10.7347 5.02131 10.9221 5.12973C11.1096 5.23814 11.2562 5.40518 11.3395 5.60512L13.852 11.4676C13.9173 11.6181 13.9446 11.7822 13.9315 11.9457C13.9185 12.1092 13.8654 12.267 13.777 12.4051L11.6895 15.5801C11.5965 15.7237 11.542 15.8888 11.531 16.0595C11.5201 16.2302 11.5531 16.4008 11.627 16.5551Z" fill="#95BE3F"/>
<path d="M11.627 16.5551C12.656 18.6801 14.3743 20.3941 16.502 21.4176C16.6589 21.4919 16.8325 21.5241 17.0056 21.5109C17.1788 21.4978 17.3455 21.4398 17.4895 21.3426L20.6145 19.2551C20.7525 19.1615 20.9121 19.1043 21.0782 19.089C21.2443 19.0737 21.4116 19.1008 21.5645 19.1676L27.4145 21.6801C27.6144 21.7633 27.7814 21.91 27.8898 22.0974C27.9983 22.2849 28.042 22.5028 28.0145 22.7176C27.829 24.1648 27.1227 25.4948 26.0275 26.4588C24.9324 27.4228 23.5235 27.9548 22.0645 27.9551C17.5558 27.9551 13.2318 26.1641 10.0436 22.9759C6.85552 19.7878 5.06445 15.4638 5.06445 10.9551C5.06478 9.49612 5.59672 8.08722 6.56074 6.99206C7.52475 5.89691 8.85478 5.19053 10.302 5.00512C10.5168 4.97753 10.7347 5.02131 10.9221 5.12973C11.1096 5.23814 11.2562 5.40518 11.3395 5.60512L13.852 11.4676C13.9173 11.6181 13.9446 11.7822 13.9315 11.9457C13.9185 12.1092 13.8654 12.267 13.777 12.4051L11.6895 15.5801C11.5965 15.7237 11.542 15.8888 11.531 16.0595C11.5201 16.2302 11.5531 16.4008 11.627 16.5551V16.5551Z" stroke="#95BE3F" stroke-width="2" stroke-linecap="round" stroke-linejoin="round"/>
</svg>
