<svg width="39" height="39" viewBox="0 0 39 39" fill="none" xmlns="http://www.w3.org/2000/svg">
<circle cx="19.5" cy="19.5" r="19.5" fill="#95BE3F"/>
<path d="M21.787 13.2486C22.6169 13.4105 23.3796 13.8164 23.9774 14.4143C24.5753 15.0121 24.9812 15.7748 25.1431 16.6047L21.787 13.2486ZM21.787 9.8501C23.5112 10.0416 25.1189 10.8137 26.3464 12.0396C27.5738 13.2655 28.3479 14.8723 28.5416 16.5962L21.787 9.8501ZM27.692 23.3762V25.9251C27.6929 26.1617 27.6445 26.396 27.5497 26.6128C27.4549 26.8296 27.3158 27.0242 27.1415 27.1842C26.9671 27.3441 26.7613 27.4659 26.5371 27.5417C26.313 27.6175 26.0754 27.6457 25.8398 27.6244C23.2253 27.3403 20.7139 26.4469 18.5075 25.016C16.4546 23.7115 14.7141 21.9711 13.4097 19.9182C11.9738 17.7017 11.0802 15.1781 10.8013 12.5519C10.7801 12.317 10.808 12.0802 10.8833 11.8566C10.9586 11.633 11.0796 11.4276 11.2387 11.2534C11.3977 11.0791 11.5913 10.9399 11.8071 10.8446C12.0229 10.7493 12.2562 10.7 12.4921 10.6997H15.041C15.4533 10.6957 15.853 10.8417 16.1657 11.1106C16.4783 11.3794 16.6825 11.7528 16.7402 12.1611C16.8478 12.9768 17.0473 13.7777 17.335 14.5486C17.4493 14.8527 17.474 15.1832 17.4063 15.5009C17.3385 15.8186 17.1811 16.1103 16.9526 16.3413L15.8736 17.4203C17.0831 19.5474 18.8443 21.3086 20.9714 22.5181L22.0504 21.4391C22.2814 21.2106 22.5731 21.0532 22.8908 20.9854C23.2085 20.9177 23.539 20.9424 23.8431 21.0567C24.614 21.3444 25.4149 21.5439 26.2306 21.6515C26.6433 21.7097 27.0203 21.9176 27.2897 22.2356C27.5591 22.5536 27.7023 22.9595 27.692 23.3762Z" stroke="white" stroke-width="1.27445" stroke-linecap="round" stroke-linejoin="round"/>
</svg>
