<svg viewBox="0 0 33 33" fill="none" xmlns="http://www.w3.org/2000/svg">
<path opacity="0.2" d="M24.877 15.7069L17.877 8.70692L21.1645 5.41942C21.2575 5.32494 21.3684 5.2499 21.4907 5.19869C21.6131 5.14747 21.7443 5.12109 21.877 5.12109C22.0096 5.12109 22.1408 5.14747 22.2632 5.19869C22.3855 5.2499 22.4964 5.32494 22.5895 5.41942L28.1645 10.9944C28.2589 11.0875 28.334 11.1984 28.3852 11.3207C28.4364 11.443 28.4628 11.5743 28.4628 11.7069C28.4628 11.8395 28.4364 11.9708 28.3852 12.0931C28.334 12.2155 28.2589 12.3264 28.1645 12.4194L24.877 15.7069Z" fill="#95BE3F"/>
<path d="M12.877 27.7069H6.87696C6.61174 27.7069 6.35739 27.6016 6.16985 27.414C5.98232 27.2265 5.87696 26.9721 5.87696 26.7069V21.1194C5.8765 20.9896 5.90166 20.8609 5.951 20.7408C6.00033 20.6207 6.07287 20.5115 6.16446 20.4194L21.1645 5.41942C21.2575 5.32494 21.3684 5.2499 21.4907 5.19869C21.6131 5.14747 21.7443 5.12109 21.877 5.12109C22.0096 5.12109 22.1409 5.14747 22.2632 5.19869C22.3855 5.2499 22.4964 5.32494 22.5895 5.41942L28.1645 10.9944C28.2589 11.0875 28.334 11.1984 28.3852 11.3207C28.4364 11.443 28.4628 11.5743 28.4628 11.7069C28.4628 11.8395 28.4364 11.9708 28.3852 12.0931C28.334 12.2155 28.2589 12.3264 28.1645 12.4194L12.877 27.7069Z" stroke="#95BE3F" stroke-width="2" stroke-linecap="round" stroke-linejoin="round"/>
<path d="M17.877 8.70703L24.877 15.707" stroke="#95BE3F" stroke-width="2" stroke-linecap="round" stroke-linejoin="round"/>
<path d="M27.877 27.707H12.877L5.93945 20.7695" stroke="#95BE3F" stroke-width="2" stroke-linecap="round" stroke-linejoin="round"/>
<path d="M21.377 12.207L9.37695 24.207" stroke="#95BE3F" stroke-width="2" stroke-linecap="round" stroke-linejoin="round"/>
</svg>
