<svg viewBox="0 0 296 96" fill="none" xmlns="http://www.w3.org/2000/svg">
<rect width="296" height="96" fill="white"/>
<path d="M60.5918 44.0335C61.0535 44.2644 61.3473 44.1804 61.4942 43.8237C61.6411 43.4669 61.4732 43.0052 61.0325 42.4805C60.8646 42.3126 60.6337 42.2497 60.4029 42.3546C60.256 42.3966 60.0671 41.9769 60.0251 41.8509C59.6474 40.7596 59.9202 39.4165 60.8226 37.8425C61.746 36.2685 63.0472 34.6316 64.7051 32.9526C66.3631 31.2737 68.1259 29.7417 69.9938 28.3356C71.8616 26.9295 73.5405 25.8801 75.0305 25.1456C76.5416 24.4111 77.5909 24.1802 78.1785 24.474C78.4933 24.7259 78.5143 25.2506 78.2415 26.0271C77.9687 26.8036 77.6329 27.5591 77.2131 28.3356C76.8144 29.1121 76.5206 29.6158 76.3737 29.8466L68.6926 42.3546C68.6716 42.3966 68.6296 42.4595 68.5877 42.5225C68.3358 42.9212 68 43.5299 67.5803 44.3273C67.1606 45.1248 66.8248 45.9013 66.5729 46.6359C66.3421 47.3704 66.3631 47.8531 66.6779 48.0839C67.2655 48.4827 69.2382 46.1742 69.595 45.7544C70.0357 45.2298 70.6863 44.4323 71.5468 43.341C72.659 41.9349 73.9812 40.3189 75.4713 38.4931C76.9613 36.6672 78.4723 34.8834 80.0044 33.1625C81.5364 31.4416 82.9005 30.0565 84.0967 28.9862C85.293 27.9158 86.1324 27.4332 86.6151 27.5801C87.0768 27.8109 87.1608 28.5035 86.846 29.6577C86.5312 30.812 86.0905 32.1341 85.4818 33.6662C84.1597 37.2129 82.7326 41.0954 84.3905 41.746C85.0201 41.9349 86.0065 41.6621 87.3497 40.8856C88.6928 40.109 90.2038 39.0807 91.8618 37.8005C93.5407 36.5203 95.1776 35.1772 96.7936 33.8131C98.4096 32.4489 99.7947 31.2527 100.949 30.2244C101.809 29.4479 102.46 28.8812 102.859 28.5454C103.236 28.2306 105.986 26.0061 106.426 26.174C106.867 26.3838 104.412 30.3713 104.013 30.9589C103.992 30.9799 103.992 31.0009 103.971 31.0219C103.509 31.7564 102.754 32.8687 101.704 34.4007C100.466 36.2265 99.0392 38.3252 97.4442 40.7386C95.8492 43.1521 94.3382 45.5446 92.9111 47.937C91.484 50.3085 90.3927 52.3862 89.6372 54.1281C88.9027 55.891 88.7348 57.0452 89.1545 57.5699C89.6372 57.9896 90.3927 57.8427 90.9174 57.6538C91.7149 57.444 91.3581 56.7094 90.7705 56.9193C90.7285 56.9193 90.6865 56.9193 90.6655 56.9403C90.1619 57.1292 89.7631 57.2131 89.8261 56.5205C89.931 55.6811 90.5396 54.317 91.6099 52.4282C92.6802 50.5394 94.0024 48.3987 95.5554 46.0063C97.1294 43.5928 98.7034 41.2213 100.277 38.8918C102.733 35.2821 104.517 32.5119 105.671 30.5811C105.692 30.5392 105.713 30.4972 105.755 30.4342C105.986 30.0355 106.322 29.4479 106.72 28.6504C107.119 27.8529 107.413 27.0974 107.581 26.3628C107.77 25.6283 107.644 25.1456 107.203 24.9148C106.384 24.474 103.929 26.2579 103.069 26.9505C103.006 26.9924 102.943 27.0344 102.901 27.0764C102.355 27.5171 101.306 28.3985 99.7737 29.7207C98.0738 31.2107 96.143 32.8477 94.0024 34.6316C91.8828 36.4154 89.931 37.9474 88.1891 39.2276C86.4472 40.4868 85.293 41.0534 84.7473 40.9485C84.5375 40.8226 84.5584 40.3399 84.7893 39.4795C85.0411 38.619 85.3979 37.5487 85.8386 36.2895C87.2237 32.344 89.0496 27.2862 87.0349 26.5097C86.2584 26.2999 85.0831 26.8665 83.4881 28.2306C81.9141 29.5738 80.1932 31.2737 78.3464 33.3304C76.5206 35.3661 74.8207 37.3388 73.2886 39.2276C71.7566 41.1164 70.6653 42.5015 69.9938 43.383C69.8888 43.5299 69.7629 43.6558 69.658 43.8027C67.7272 46.3421 67.4544 46.51 68.8605 44.3064C69.0913 43.9076 69.3642 43.4669 69.679 42.9422L77.36 30.4342C77.6329 29.9935 78.0106 29.3219 78.4513 28.4405C78.913 27.5591 79.2069 26.6776 79.3538 25.7962C79.5007 24.9148 79.2698 24.2642 78.6612 23.8235C77.8637 23.4037 76.6255 23.5506 74.9466 24.2642C73.2677 24.9567 71.4208 26.048 69.4061 27.4961C67.4124 28.9442 65.5236 30.5602 63.7607 32.344C61.9979 34.1279 60.6337 35.8907 59.6684 37.6326C58.724 39.3745 58.4511 40.8856 58.8919 42.1867C59.2276 43.0052 59.7943 43.6348 60.5918 44.0335ZM106.846 41.2213C106.07 41.2003 105.188 41.5571 104.244 42.2917C103.299 43.0052 102.481 43.8447 101.767 44.7891C101.054 45.7334 100.655 46.5519 100.592 47.2445C100.571 48.2728 100.949 48.8395 101.725 48.9654C102.502 49.0913 103.467 48.9654 104.58 48.5666C105.692 48.1679 106.762 47.7062 107.749 47.1815C108.756 46.6359 109.47 46.2161 109.889 45.9223C110.96 45.1458 110.267 44.936 109.784 45.2508C109.553 45.3977 109.029 45.6915 108.189 46.1112C107.35 46.51 106.426 46.9087 105.419 47.3074C104.412 47.7062 103.551 47.937 102.817 48C102.082 48.063 101.725 47.8321 101.725 47.3074C101.767 46.9507 101.935 46.5519 102.208 46.1112C102.502 45.6495 102.754 45.2717 102.985 44.9989C103.299 45.2927 103.824 45.3137 104.517 45.0409C105.23 44.7681 105.923 44.3483 106.573 43.8027C107.224 43.257 107.644 42.7324 107.791 42.2287C107.937 41.725 107.623 41.3892 106.846 41.2213ZM106.426 42.3756C106.951 42.2287 106.951 42.3126 106.678 42.6274C106.363 42.9422 105.923 43.299 105.335 43.6978C104.748 44.0755 104.244 44.3483 103.845 44.4952C102.313 44.9989 105.797 42.5855 106.426 42.3756ZM101.264 60.3191C101.977 60.6759 102.691 59.2068 102.544 59.2068L110.876 45.6285C111.253 44.9989 111.316 44.9569 111.526 44.831C111.61 44.7891 111.778 44.6841 112.009 44.5162C113.247 43.4459 115.031 41.3682 117.339 38.2412C119.669 35.1142 121.789 32.0082 123.698 28.9232C123.698 28.9022 123.698 28.9022 123.719 28.8812C123.887 28.6084 124.223 28.0208 124.748 27.1184C125.272 26.1949 125.776 25.2086 126.238 24.1802C126.72 23.1309 126.951 22.2705 126.951 21.6199C126.972 20.9483 126.553 20.7384 125.692 20.9903C125.146 21.2421 124.118 22.4384 122.628 24.579C121.138 26.6986 119.501 29.217 117.696 32.0922C115.891 34.9673 114.254 37.6326 112.785 40.109C111.316 42.5645 110.351 44.2434 109.868 45.1458C108.042 48.0839 106.552 50.4974 105.377 52.3652C101.243 59.0809 100.613 60.0253 101.264 60.3191ZM113.268 41.767C114.338 40.0251 115.409 38.2203 116.521 36.3525C119.123 31.9033 121.852 27.3912 124.643 23.5297C126.637 20.9273 126.175 22.6272 122.733 28.3356C121.285 30.6651 119.711 33.0576 118.011 35.534C116.311 38.0104 114.758 40.13 113.373 41.8929C112.869 42.5015 112.869 42.3756 113.268 41.767ZM121.054 38.3462C120.718 38.3252 120.466 38.5351 120.445 38.8499C120.445 38.8708 120.383 38.9128 120.278 38.9338C120.068 39.0597 119.711 39.2066 119.795 39.4375C120.215 40.4448 122.628 38.4301 121.054 38.3462ZM116.374 48.3148C117.004 48.3148 118.053 48.1049 119.501 47.6852C120.97 47.2655 122.166 46.8038 123.069 46.3001C123.614 45.9223 123.321 45.4606 122.88 45.7125C122.733 45.7964 122.313 45.9643 121.579 46.2371C120.865 46.489 120.068 46.7198 119.207 46.9507C118.347 47.1815 117.654 47.2655 117.109 47.2025C116.584 47.1396 116.437 46.8457 116.668 46.3001C116.983 45.6705 117.444 44.894 118.053 43.9706C118.683 43.0262 119.27 42.1867 119.795 41.4312C119.816 41.3892 119.858 41.3473 119.879 41.3263C120.068 41.0744 120.236 40.8016 120.047 40.4868C119.669 39.8992 117.948 41.1374 118.284 41.767C118.242 41.809 118.2 41.8719 118.137 41.9769C117.214 43.236 113.646 48.3148 116.374 48.3148ZM122.019 33.7711C124.706 33.3094 127.35 32.8897 129.952 32.5119C130.624 32.407 130.561 32.5749 130.225 33.0576C130.162 33.1415 130.12 33.2464 130.057 33.3514C125.146 41.4102 120.152 49.3851 115.073 57.2761C114.338 58.4093 113.625 59.5426 112.89 60.6969C112.366 61.9351 112.89 62.3968 114.129 61.4734C114.527 61.1586 114.611 60.6759 114.108 60.6759C117.256 55.744 120.383 50.8122 123.489 45.8594C123.698 45.5026 123.761 45.4396 123.845 45.3977C123.908 45.3767 123.971 45.3347 124.118 45.1878C125.398 44.0335 126.972 42.2707 128.882 39.8992C130.792 37.5277 132.639 35.0093 134.381 32.323C134.653 31.8823 134.863 31.8194 135.283 31.8194C135.388 31.7984 135.493 31.7984 135.619 31.7774C139.333 31.3367 143.153 31.1688 147.098 31.2317C147.854 31.2737 147.854 30.6651 147.161 30.6651C143.489 30.6441 139.9 30.728 136.416 30.9589C136.269 30.9589 136.101 30.9589 135.955 30.9799H135.808C135.199 31.0638 135.178 30.9799 135.682 30.2034C135.703 30.1824 135.703 30.1614 135.703 30.1404C137.382 27.3072 138.368 24.9148 138.641 23.005C138.809 21.5359 138.284 21.347 137.088 22.4593C136.311 23.1519 134.842 25.3135 132.681 28.9442C132.618 29.0491 132.576 29.1331 132.513 29.238C132.24 29.6787 131.988 30.0985 131.736 30.5392C131.275 31.4206 131.023 31.4626 129.554 31.6305C127.014 31.9453 124.412 32.344 121.768 32.7847C119.039 33.4563 121.957 34.5476 122.019 33.897V33.7711ZM132.974 30.4552C133.079 30.2663 133.205 30.0775 133.31 29.8886C133.394 29.7417 133.478 29.6158 133.562 29.4689C135.43 26.3419 136.731 24.3481 137.487 23.5087C136.878 25.5444 135.808 27.8949 134.255 30.5602C133.919 31.1058 133.856 31.1898 133.415 31.1898L132.786 31.2527C132.534 31.2737 132.702 30.9379 132.974 30.4552ZM131.652 32.6588C131.925 32.1761 132.282 32.1132 132.765 32.0922C132.807 32.0922 132.849 32.0922 132.87 32.0712H132.932C133.373 32.0292 133.352 32.0502 132.891 32.8267C130.624 36.3944 128.441 39.4165 126.322 41.8719C125.503 42.7743 125.44 42.6904 126.175 41.5991C127.581 39.4375 128.924 37.2968 130.162 35.1352C130.687 34.2748 131.17 33.4353 131.652 32.6588ZM140.089 45.1458C139.522 45.4606 138.851 45.7334 138.074 45.9643C137.298 46.1952 136.71 46.1742 136.29 45.9013C135.892 45.6285 135.955 44.936 136.479 43.7817C136.563 43.6138 136.563 43.4459 136.458 43.278C136.29 43.0262 135.997 42.9842 135.745 43.1311C133.352 44.7891 131.631 45.9013 130.582 46.51C129.533 47.1186 128.987 47.3494 128.924 47.2025C128.882 47.0556 129.197 46.6778 129.847 46.0482C130.498 45.3977 131.317 44.7261 132.261 44.0126C133.205 43.299 134.108 42.7743 134.968 42.4386C135.829 42.1028 136.416 42.1657 136.773 42.6484C136.794 42.7114 136.752 42.7534 136.731 42.8163C136.71 42.8793 136.668 42.9212 136.668 42.9842C136.815 43.257 137.235 43.5089 137.508 43.4249C137.78 43.341 137.99 43.0891 137.906 42.8163C137.445 41.746 136.647 41.2843 135.514 41.4732C134.381 41.6411 133.184 42.1447 131.946 43.0052C130.708 43.8656 129.701 44.7681 128.924 45.7125C128.148 46.6569 127.854 47.3494 128.085 47.7901C128.273 48.1049 128.861 48.1049 129.868 47.7482C130.897 47.3914 132.492 46.51 134.653 45.1039C135.052 44.852 135.073 44.831 135.052 45.2298V45.3347C135.073 46.2791 135.43 46.8038 136.08 46.9297C136.731 47.0346 137.487 46.9507 138.305 46.6569C139.145 46.3421 139.837 46.0273 140.362 45.7125C141.033 45.2298 140.844 44.7471 140.089 45.1458ZM155.829 34.7994C156.207 35.6179 157.382 34.9463 157.046 33.939C156.983 33.855 156.983 33.8131 156.92 33.7921C156.878 33.7501 156.836 33.7291 156.92 33.2884C157.151 32.4699 157.907 31.5046 159.187 30.3503C160.467 29.196 161.936 28.1047 163.615 27.0764C165.294 26.048 166.868 25.3345 168.316 24.8938C169.764 24.4531 170.792 24.558 171.401 25.1876C171.926 25.9011 171.863 27.1813 171.233 29.0071C170.624 30.833 169.68 32.9316 168.421 35.2611C167.183 37.5907 165.86 39.8782 164.496 42.1238C163.132 44.3693 161.936 46.2581 160.929 47.8321C160.236 48.9024 159.753 49.6789 159.481 50.1616C159.334 50.4135 159.208 50.6233 159.103 50.8122C158.62 51.6307 158.599 51.6727 157.277 52.2603C153.562 53.9182 149.932 55.765 146.427 57.8427C145.944 58.1155 145.42 58.7451 145.734 59.3118C145.923 59.5846 146.28 59.6056 146.595 59.5426C147.245 59.3957 147.875 59.1858 148.232 58.6192C148.4 58.2834 148.526 58.1575 148.861 57.9267C151.401 56.4786 154.024 55.1354 156.689 53.8972C156.794 53.8553 157.256 53.6454 157.487 53.5195C157.382 53.7083 157.214 53.9812 157.109 54.1701C157.046 54.254 157.004 54.317 156.983 54.3379C156.92 54.4639 156.836 54.5898 156.773 54.7157C156.584 55.0095 156.416 55.3033 156.228 55.6181C155.808 56.4576 156.437 56.7514 156.857 56.1218L157.361 55.3033C157.508 55.0515 157.655 54.7997 157.802 54.5688C157.865 54.4639 157.907 54.3589 157.969 54.254C158.704 53.0368 158.788 52.9109 160.257 52.2603C161.138 51.8615 162.44 51.2949 164.182 50.5604C165.923 49.8468 167.875 49.1333 169.995 48.4197C172.135 47.7062 174.234 47.1605 176.291 46.7618C178.368 46.363 180.152 46.2581 181.684 46.489C183.216 46.7198 184.245 47.4124 184.769 48.5876C184.853 48.8604 185.021 49.1333 185.357 49.0283C185.63 48.8814 185.525 48.5457 185.42 48.2728C185.42 48.2518 185.42 48.2518 185.399 48.2309C182.692 41.6621 166.28 48.3778 161.117 50.5604C160.026 51.064 159.921 51.0431 160.614 49.9727C161.096 49.1962 161.747 48.1889 162.545 46.9507C163.951 44.831 165.462 42.4386 167.12 39.7523C168.778 37.045 170.163 34.4846 171.275 32.0292C172.408 29.5738 172.891 27.643 172.702 26.2369C172.429 24.9777 171.821 24.2432 170.834 24.0123C169.869 23.7815 168.757 23.8864 167.476 24.2852C166.217 24.6839 165.021 25.1876 163.867 25.7962C162.733 26.4048 161.873 26.9085 161.264 27.3282C160.572 27.7689 159.732 28.3776 158.746 29.196C157.76 30.0145 156.962 30.9169 156.312 31.9033C155.661 32.8897 155.514 33.855 155.829 34.7994ZM182.146 60.3191C182.86 60.6759 183.573 59.2068 183.426 59.2068L191.758 45.6285C192.136 44.9989 192.199 44.9569 192.408 44.831C192.492 44.7891 192.66 44.6841 192.891 44.5162C194.129 43.4459 195.913 41.3682 198.222 38.2412C200.551 35.1142 202.671 32.0082 204.581 28.9232C204.581 28.9022 204.581 28.9022 204.602 28.8812C204.77 28.6084 205.105 28.0208 205.63 27.1184C206.155 26.1949 206.658 25.2086 207.12 24.1802C207.603 23.1309 207.834 22.2705 207.834 21.6199C207.855 20.9483 207.435 20.7384 206.574 20.9903C206.029 21.2421 205 22.4384 203.51 24.579C202.02 26.6986 200.383 29.217 198.579 32.0922C196.774 34.9673 195.137 37.6326 193.668 40.109C192.199 42.5645 191.233 44.2434 190.751 45.1458C188.925 48.0839 187.435 50.4974 186.259 52.3652C182.125 59.0809 181.495 60.0253 182.146 60.3191ZM194.15 41.767C195.221 40.0251 196.291 38.2203 197.403 36.3525C200.006 31.9033 202.734 27.3912 205.525 23.5297C207.519 20.9273 207.057 22.6272 203.615 28.3356C202.167 30.6651 200.593 33.0576 198.893 35.534C197.193 38.0104 195.64 40.13 194.255 41.8929C193.752 42.5015 193.752 42.3756 194.15 41.767ZM200.446 48.3778C200.845 47.958 201.328 47.1815 201.601 46.6778C201.768 46.3421 201.936 46.363 202.125 46.5309C202.398 46.7198 202.923 46.9507 203.993 46.5309C205 46.0692 204.833 45.2717 204.287 45.7754C203.678 46.3421 202.251 46.384 202.167 45.1039C202.125 43.341 200.53 42.9422 200.215 43.5928C199.985 44.2644 200.467 45.2088 200.971 45.7125C201.118 45.8174 201.097 45.9013 201.013 46.0063C200.992 46.0482 200.95 46.1112 200.908 46.1742C200.467 47.0766 199.67 48.1469 199.103 48.4827C197.361 49.4481 195.85 47.3914 199.943 42.6694C200.027 42.5645 200.132 42.5645 200.236 42.5645C200.467 42.5855 200.803 42.5225 201.391 41.9139C201.706 41.1374 201.286 40.8646 200.635 41.0954C200.236 41.2003 199.712 41.6201 199.061 42.3336C197.34 44.3273 196.459 45.9643 196.438 47.2025C196.417 48.4407 196.816 49.1752 197.676 49.4271C198.537 49.6789 199.46 49.3222 200.446 48.3778ZM208.064 39.3325C207.078 40.2769 206.155 41.4522 205.315 42.8373C204.497 44.2224 203.993 45.6075 203.804 46.9717C203.615 49.2172 204.518 49.9098 205.84 49.6789C206.637 49.49 207.729 48.8604 209.114 47.7901C210.499 46.7198 211.884 45.5656 213.29 44.3693C216.438 41.6411 218.81 39.6473 216.522 43.299L212.346 49.9937L212.22 50.1826C211.863 50.7702 211.611 51.148 211.003 51.6517C209.471 52.9318 208.001 54.4219 206.595 56.1638C205.189 57.9057 204.098 59.6895 203.321 61.5363C203.3 61.5783 203.3 61.6203 203.279 61.6623C203.007 62.2919 202.461 63.698 203.342 63.9498C203.951 64.0547 204.707 63.5301 205.651 62.4178C206.595 61.3055 207.54 59.9833 208.484 58.4513C209.429 56.9403 210.226 55.6391 210.856 54.5478C211.17 54.0231 211.401 53.6454 211.548 53.3726C211.737 53.0578 211.905 52.8059 212.01 52.5751C212.283 52.0084 212.535 51.6097 213.269 51.085C213.437 50.9591 213.5 50.7912 213.458 50.5604C213.353 50.2456 213.584 49.9098 213.815 49.595C213.857 49.532 213.899 49.4481 213.941 49.3851C214.193 48.9864 214.444 48.5876 214.675 48.1889C215.011 47.6222 215.347 47.0556 215.704 46.51C215.976 46.0692 216.27 45.6495 216.564 45.2088C217.299 44.2014 217.928 43.1521 218.495 42.0818C218.537 41.9978 218.579 41.9139 218.621 41.8509C218.914 41.3473 219.082 40.9065 219.103 40.5078C219.124 40.109 218.747 39.8572 217.97 39.7733C217.382 39.9202 216.501 40.4448 215.326 41.3682C214.151 42.2707 212.891 43.32 211.569 44.4743C210.226 45.6285 209.009 46.6569 207.897 47.5173C206.784 48.3778 206.008 48.8395 205.546 48.8604C205.084 48.8814 204.895 48.3778 204.958 47.3074C205.021 46.7828 205.252 46.0482 205.651 45.1039C206.05 44.1595 206.532 43.257 207.078 42.4386C207.624 41.6201 208.148 41.1164 208.631 40.9485C209.995 40.6127 209.093 38.682 208.064 39.3325ZM206.008 59.9623C205.651 60.571 203.07 64.8312 204.434 61.4524C204.979 60.3191 208.988 54.5688 209.408 54.4429C209.848 54.317 206.784 58.7871 206.113 59.8154C206.05 59.8784 206.029 59.9414 206.008 59.9623ZM229.177 42.4805C229.24 42.4176 229.303 42.3336 229.366 42.2707C230.058 41.5781 230.247 41.3892 229.66 42.3126C228.526 44.2434 227.078 46.7618 225.315 49.8468C224.119 51.9245 223.133 53.6664 222.335 55.0515C221.958 55.744 222.566 55.828 222.86 55.3663C222.923 55.3033 223.427 54.4849 224.371 52.9528C225.336 51.4208 226.533 49.511 227.939 47.2235C229.366 44.936 230.793 42.6065 232.22 40.235C232.64 39.5214 232.996 38.9758 233.311 38.577C233.626 38.1783 234.067 37.6956 234.633 37.129C236.019 35.8488 237.488 34.3797 239.02 32.6798C240.573 30.9799 242.021 29.1331 243.385 27.1603C244.245 25.8801 244.707 24.9987 244.77 24.558C244.644 23.5087 243.175 23.8025 242.44 24.4321C241.538 25.1666 240.468 26.2159 239.25 27.5801C238.033 28.9442 236.942 30.3503 235.998 31.8194C235.305 32.8897 234.361 34.4217 233.164 36.4154C232.766 37.066 232.409 37.6116 232.052 38.0314C231.695 38.4511 231.255 38.9128 230.709 39.4165C230.268 39.8572 230.184 39.7733 229.953 39.6473C229.849 39.5634 229.66 39.4795 229.387 39.3955C228.337 39.1647 227.162 39.4375 225.882 40.193C224.602 40.9485 223.364 41.9349 222.209 43.1311C221.055 44.3273 220.132 45.5026 219.439 46.6359C218.747 47.7691 218.474 48.5876 218.621 49.1123C218.873 49.6789 219.439 49.8048 220.3 49.4481C221.16 49.1123 222.146 48.5247 223.28 47.6642C224.413 46.8038 225.504 45.8804 226.575 44.936C227.645 43.9706 228.505 43.1521 229.177 42.4805ZM238.075 32.1132C237.844 32.344 237.635 32.5749 237.404 32.8267C236.019 34.3168 234.696 35.7229 236.585 32.7008C237.194 31.7564 237.949 30.749 238.831 29.6367C239.733 28.5245 240.552 27.5591 241.286 26.7826C241.958 26.111 244.14 24.2012 242.524 26.6567C241.16 28.6504 239.67 30.4552 238.075 32.1132ZM229.24 40.235C229.639 40.3189 229.639 40.4658 229.366 40.7177C227.498 42.5015 225.714 44.1175 223.972 45.5656C222.23 47.0136 220.866 48 219.859 48.5666C219.187 48.9234 219.355 48.4617 219.775 47.7062C220.237 46.8877 221.034 45.8804 222.167 44.6631C223.322 43.4249 224.539 42.3546 225.84 41.4522C227.141 40.5288 228.275 40.13 229.24 40.235Z" fill="black"/>
<path d="M60.5135 78.6433H65.4458V79.6606H59.4345V68.8711H60.5135V78.6433ZM70.0059 71.7688C71.1465 71.7688 72.0662 72.1747 72.7649 72.9865C73.474 73.788 73.8285 74.7385 73.8285 75.838C73.8285 75.9511 73.8182 76.1104 73.7977 76.3159H67.031C67.1338 77.0968 67.4626 77.7185 68.0175 78.1809C68.5827 78.6331 69.2763 78.8591 70.0984 78.8591C70.6841 78.8591 71.1876 78.741 71.6089 78.5046C72.0405 78.258 72.3642 77.9394 72.58 77.549L73.474 78.073C73.1349 78.6177 72.6725 79.0492 72.0867 79.3678C71.501 79.6863 70.8331 79.8456 70.083 79.8456C68.8704 79.8456 67.8839 79.4654 67.1235 78.705C66.3631 77.9446 65.9829 76.9787 65.9829 75.8072C65.9829 74.6563 66.358 73.6955 67.1081 72.9249C67.8583 72.1542 68.8242 71.7688 70.0059 71.7688ZM70.0059 72.7553C69.2044 72.7553 68.5313 72.9968 67.9867 73.4798C67.4524 73.9524 67.1338 74.569 67.031 75.3294H72.7804C72.6776 74.5176 72.3642 73.8856 71.8401 73.4335C71.3161 72.9814 70.7046 72.7553 70.0059 72.7553ZM82.0746 71.9538H83.0919V79.3524C83.0919 80.4622 82.7117 81.3356 81.9513 81.9727C81.1909 82.6098 80.2814 82.9283 79.223 82.9283C77.4145 82.9283 76.1968 82.3015 75.57 81.0479L76.464 80.5392C76.9264 81.4743 77.8461 81.9419 79.223 81.9419C80.1068 81.9419 80.8004 81.7055 81.3039 81.2328C81.8177 80.7704 82.0746 80.1436 82.0746 79.3524V78.1501C81.3655 79.2804 80.3277 79.8456 78.961 79.8456C77.8615 79.8456 76.9213 79.4551 76.1403 78.6742C75.3696 77.8932 74.9843 76.9376 74.9843 75.8072C74.9843 74.6769 75.3696 73.7212 76.1403 72.9403C76.9213 72.1593 77.8615 71.7688 78.961 71.7688C80.3277 71.7688 81.3655 72.334 82.0746 73.4643V71.9538ZM76.8802 77.9806C77.4659 78.5663 78.1852 78.8591 79.0381 78.8591C79.891 78.8591 80.6103 78.5663 81.196 77.9806C81.7817 77.3846 82.0746 76.6601 82.0746 75.8072C82.0746 74.9543 81.7817 74.235 81.196 73.6493C80.6103 73.0533 79.891 72.7553 79.0381 72.7553C78.1852 72.7553 77.4659 73.0533 76.8802 73.6493C76.2944 74.235 76.0016 74.9543 76.0016 75.8072C76.0016 76.6601 76.2944 77.3846 76.8802 77.9806ZM91.8737 71.9538H92.891V79.6606H91.8737V78.1501C91.1647 79.2804 90.1268 79.8456 88.7601 79.8456C87.6606 79.8456 86.7204 79.4551 85.9394 78.6742C85.1688 77.8932 84.7834 76.9376 84.7834 75.8072C84.7834 74.6769 85.1688 73.7212 85.9394 72.9403C86.7204 72.1593 87.6606 71.7688 88.7601 71.7688C90.1268 71.7688 91.1647 72.334 91.8737 73.4643V71.9538ZM86.6793 77.9806C87.265 78.5663 87.9843 78.8591 88.8372 78.8591C89.6901 78.8591 90.4094 78.5663 90.9951 77.9806C91.5809 77.3846 91.8737 76.6601 91.8737 75.8072C91.8737 74.9543 91.5809 74.235 90.9951 73.6493C90.4094 73.0533 89.6901 72.7553 88.8372 72.7553C87.9843 72.7553 87.265 73.0533 86.6793 73.6493C86.0936 74.235 85.8007 74.9543 85.8007 75.8072C85.8007 76.6601 86.0936 77.3846 86.6793 77.9806ZM95.045 79.6606V68.4086H96.0623V79.6606H95.045ZM106.39 68.8711C107.86 68.8711 109.072 69.3951 110.028 70.4433C110.994 71.4811 111.477 72.7553 111.477 74.2659C111.477 75.7764 110.994 77.0557 110.028 78.1039C109.072 79.1417 107.86 79.6606 106.39 79.6606H102.229V68.8711H106.39ZM106.39 78.6433C107.572 78.6433 108.538 78.222 109.288 77.3794C110.048 76.5368 110.429 75.4989 110.429 74.2659C110.429 73.0328 110.048 71.9949 109.288 71.1523C108.538 70.3097 107.572 69.8884 106.39 69.8884H103.308V78.6433H106.39ZM114.185 73.2331C114.658 72.298 115.47 71.8305 116.621 71.8305V72.817C115.922 72.817 115.341 73.0225 114.879 73.4335C114.417 73.8445 114.185 74.4919 114.185 75.3756V79.6606H113.168V71.9538H114.185V73.2331ZM124.176 71.9538H125.194V79.6606H124.176V78.1501C123.467 79.2804 122.429 79.8456 121.063 79.8456C119.963 79.8456 119.023 79.4551 118.242 78.6742C117.471 77.8932 117.086 76.9376 117.086 75.8072C117.086 74.6769 117.471 73.7212 118.242 72.9403C119.023 72.1593 119.963 71.7688 121.063 71.7688C122.429 71.7688 123.467 72.334 124.176 73.4643V71.9538ZM118.982 77.9806C119.568 78.5663 120.287 78.8591 121.14 78.8591C121.993 78.8591 122.712 78.5663 123.298 77.9806C123.883 77.3846 124.176 76.6601 124.176 75.8072C124.176 74.9543 123.883 74.235 123.298 73.6493C122.712 73.0533 121.993 72.7553 121.14 72.7553C120.287 72.7553 119.568 73.0533 118.982 73.6493C118.396 74.235 118.103 74.9543 118.103 75.8072C118.103 76.6601 118.396 77.3846 118.982 77.9806ZM131.201 69.6726C130.451 69.6109 129.891 69.7394 129.521 70.0579C129.161 70.3765 128.981 70.9057 128.981 71.6455V71.9538H131.201V72.9403H128.981V79.6606H127.964V72.9403H126.654V71.9538H127.964V71.6455C127.964 70.6385 128.241 69.8781 128.796 69.3643C129.362 68.8402 130.163 68.6142 131.201 68.6861V69.6726ZM136.67 72.9403H134.451V77.6106C134.451 78.0319 134.533 78.3351 134.697 78.52C134.862 78.6947 135.108 78.7872 135.437 78.7975C135.766 78.7975 136.177 78.7872 136.67 78.7667V79.6606C135.591 79.8251 134.78 79.748 134.235 79.4294C133.701 79.1109 133.433 78.5046 133.433 77.6106V72.9403H131.815V71.9538H133.433V70.1042L134.451 69.7959V71.9538H136.67V72.9403ZM141.46 71.7688C142.6 71.7688 143.52 72.1747 144.219 72.9865C144.928 73.788 145.282 74.7385 145.282 75.838C145.282 75.9511 145.272 76.1104 145.252 76.3159H138.485C138.588 77.0968 138.917 77.7185 139.471 78.1809C140.037 78.6331 140.73 78.8591 141.552 78.8591C142.138 78.8591 142.642 78.741 143.063 78.5046C143.494 78.258 143.818 77.9394 144.034 77.549L144.928 78.073C144.589 78.6177 144.126 79.0492 143.541 79.3678C142.955 79.6863 142.287 79.8456 141.537 79.8456C140.324 79.8456 139.338 79.4654 138.577 78.705C137.817 77.9446 137.437 76.9787 137.437 75.8072C137.437 74.6563 137.812 73.6955 138.562 72.9249C139.312 72.1542 140.278 71.7688 141.46 71.7688ZM141.46 72.7553C140.658 72.7553 139.985 72.9968 139.441 73.4798C138.906 73.9524 138.588 74.569 138.485 75.3294H144.234C144.132 74.5176 143.818 73.8856 143.294 73.4335C142.77 72.9814 142.159 72.7553 141.46 72.7553ZM147.918 73.2331C148.391 72.298 149.202 71.8305 150.353 71.8305V72.817C149.655 72.817 149.074 73.0225 148.612 73.4335C148.149 73.8445 147.918 74.4919 147.918 75.3756V79.6606H146.901V71.9538H147.918V73.2331ZM162.229 71.9538H163.246V79.6606H162.229V78.1501C161.52 79.2804 160.482 79.8456 159.115 79.8456C158.016 79.8456 157.076 79.4551 156.295 78.6742C155.524 77.8932 155.139 76.9376 155.139 75.8072C155.139 74.6769 155.524 73.7212 156.295 72.9403C157.076 72.1593 158.016 71.7688 159.115 71.7688C160.482 71.7688 161.52 72.334 162.229 73.4643V71.9538ZM157.034 77.9806C157.62 78.5663 158.339 78.8591 159.192 78.8591C160.045 78.8591 160.765 78.5663 161.35 77.9806C161.936 77.3846 162.229 76.6601 162.229 75.8072C162.229 74.9543 161.936 74.235 161.35 73.6493C160.765 73.0533 160.045 72.7553 159.192 72.7553C158.339 72.7553 157.62 73.0533 157.034 73.6493C156.449 74.235 156.156 74.9543 156.156 75.8072C156.156 76.6601 156.449 77.3846 157.034 77.9806ZM169.007 71.7688C169.942 71.7688 170.677 72.0566 171.211 72.632C171.756 73.1972 172.028 73.9627 172.028 74.9286V79.6606H171.011V74.9286C171.011 74.2402 170.826 73.7058 170.456 73.3256C170.096 72.9454 169.582 72.7553 168.914 72.7553C168.175 72.7553 167.573 72.9917 167.111 73.4643C166.649 73.9267 166.417 74.6461 166.417 75.6223V79.6606H165.4V71.9538H166.417V73.1561C166.993 72.2312 167.856 71.7688 169.007 71.7688ZM180.623 68.8711H181.64V79.6606H180.623V78.1501C179.914 79.2804 178.876 79.8456 177.509 79.8456C176.41 79.8456 175.47 79.4551 174.689 78.6742C173.918 77.8932 173.533 76.9376 173.533 75.8072C173.533 74.6769 173.918 73.7212 174.689 72.9403C175.47 72.1593 176.41 71.7688 177.509 71.7688C178.876 71.7688 179.914 72.334 180.623 73.4643V68.8711ZM175.428 77.9806C176.014 78.5663 176.734 78.8591 177.586 78.8591C178.439 78.8591 179.159 78.5663 179.744 77.9806C180.33 77.3846 180.623 76.6601 180.623 75.8072C180.623 74.9543 180.33 74.235 179.744 73.6493C179.159 73.0533 178.439 72.7553 177.586 72.7553C176.734 72.7553 176.014 73.0533 175.428 73.6493C174.843 74.235 174.55 74.9543 174.55 75.8072C174.55 76.6601 174.843 77.3846 175.428 77.9806ZM188.881 78.6433H193.813V79.6606H187.802V68.8711H188.881V78.6433ZM201.44 71.9538H202.458V79.6606H201.44V78.1501C200.731 79.2804 199.694 79.8456 198.327 79.8456C197.227 79.8456 196.287 79.4551 195.506 78.6742C194.735 77.8932 194.35 76.9376 194.35 75.8072C194.35 74.6769 194.735 73.7212 195.506 72.9403C196.287 72.1593 197.227 71.7688 198.327 71.7688C199.694 71.7688 200.731 72.334 201.44 73.4643V71.9538ZM196.246 77.9806C196.832 78.5663 197.551 78.8591 198.404 78.8591C199.257 78.8591 199.976 78.5663 200.562 77.9806C201.148 77.3846 201.44 76.6601 201.44 75.8072C201.44 74.9543 201.148 74.235 200.562 73.6493C199.976 73.0533 199.257 72.7553 198.404 72.7553C197.551 72.7553 196.832 73.0533 196.246 73.6493C195.66 74.235 195.367 74.9543 195.367 75.8072C195.367 76.6601 195.66 77.3846 196.246 77.9806ZM213.891 71.9538H214.939L212.565 79.6606H211.455L209.467 73.4489L207.479 79.6606H206.369L203.995 71.9538H205.043L206.939 78.3505L208.958 71.9538H209.976L211.995 78.3505L213.891 71.9538ZM222.022 71.9538H223.101L219.802 80.3697C219.504 81.1301 219.078 81.7261 218.523 82.1577C217.978 82.5995 217.367 82.7948 216.689 82.7434V81.7877C217.614 81.8905 218.317 81.3562 218.8 80.1847L219.001 79.7069L215.548 71.9538H216.627L219.525 78.4121L222.022 71.9538ZM227.59 71.7688C228.73 71.7688 229.65 72.1747 230.349 72.9865C231.058 73.788 231.412 74.7385 231.412 75.838C231.412 75.9511 231.402 76.1104 231.382 76.3159H224.615C224.718 77.0968 225.047 77.7185 225.602 78.1809C226.167 78.6331 226.86 78.8591 227.682 78.8591C228.268 78.8591 228.772 78.741 229.193 78.5046C229.624 78.258 229.948 77.9394 230.164 77.549L231.058 78.073C230.719 78.6177 230.256 79.0492 229.671 79.3678C229.085 79.6863 228.417 79.8456 227.667 79.8456C226.454 79.8456 225.468 79.4654 224.708 78.705C223.947 77.9446 223.567 76.9787 223.567 75.8072C223.567 74.6563 223.942 73.6955 224.692 72.9249C225.442 72.1542 226.408 71.7688 227.59 71.7688ZM227.59 72.7553C226.788 72.7553 226.115 72.9968 225.571 73.4798C225.036 73.9524 224.718 74.569 224.615 75.3294H230.364C230.262 74.5176 229.948 73.8856 229.424 73.4335C228.9 72.9814 228.289 72.7553 227.59 72.7553ZM234.048 73.2331C234.521 72.298 235.332 71.8305 236.483 71.8305V72.817C235.785 72.817 235.204 73.0225 234.742 73.4335C234.279 73.8445 234.048 74.4919 234.048 75.3756V79.6606H233.031V71.9538H234.048V73.2331Z" fill="#9BC24A"/>
</svg>
