<svg viewBox="0 0 35 35" fill="none" xmlns="http://www.w3.org/2000/svg">
<path d="M17.4928 24.3209V20.6211" stroke="#95BE3F" stroke-width="2.5" stroke-linecap="round" stroke-linejoin="round"/>
<path fill-rule="evenodd" clip-rule="evenodd" d="M26.5269 7.77393C28.9914 7.77393 30.9748 9.77184 30.9748 12.2364V17.2531C27.3873 19.3531 22.6477 20.6218 17.4852 20.6218C12.3227 20.6218 7.59769 19.3531 4.01019 17.2531V12.2218C4.01019 9.75726 6.00811 7.77393 8.47269 7.77393H26.5269Z" stroke="#95BE3F" stroke-width="2.5" stroke-linecap="round" stroke-linejoin="round"/>
<path d="M22.5969 7.76741V7.23366C22.5969 5.45449 21.1531 4.01074 19.374 4.01074H15.6115C13.8323 4.01074 12.3885 5.45449 12.3885 7.23366V7.76741" stroke="#95BE3F" stroke-width="2.5" stroke-linecap="round" stroke-linejoin="round"/>
<path d="M4.0459 22.5801L4.32152 26.239C4.50819 28.7051 6.56298 30.6111 9.03486 30.6111H25.9501C28.4219 30.6111 30.4767 28.7051 30.6634 26.239L30.939 22.5801" stroke="#95BE3F" stroke-width="2.5" stroke-linecap="round" stroke-linejoin="round"/>
</svg>
