<svg viewBox="0 0 213 69" fill="none" xmlns="http://www.w3.org/2000/svg"><path fill="#fff" d="M0 0h213v69H0z"/><path d="M89.007 38.946V41h-9.094v-1.753l4.3-4.611c.433-.481.774-.904 1.023-1.27.25-.37.43-.703.54-.995a2.35 2.35 0 0 0 .173-.849c0-.402-.067-.745-.201-1.032a1.497 1.497 0 0 0-.594-.675c-.255-.159-.572-.238-.95-.238-.401 0-.748.098-1.04.292a1.86 1.86 0 0 0-.658.813c-.146.347-.219.74-.219 1.178h-2.639c0-.791.189-1.516.566-2.173.378-.664.91-1.19 1.598-1.58.688-.395 1.504-.593 2.447-.593.932 0 1.717.152 2.356.456.645.299 1.132.73 1.461 1.297.335.56.502 1.23.502 2.009 0 .438-.07.867-.21 1.287-.14.414-.34.828-.602 1.242a9.996 9.996 0 0 1-.932 1.242c-.365.42-.77.855-1.214 1.305l-2.31 2.594h5.697Zm10.957-2.913v2.063h-9.578l-.128-1.597 5.543-8.794h2.09l-2.264 3.79-2.757 4.538h7.094Zm-1.506-8.328V41h-2.63V27.706h2.63Zm8.72 0-4.876 14.436h-1.954l4.876-14.435h1.954Zm10.181 0v1.416L112.218 41h-2.776l5.141-11.24h-6.62v-2.055h9.396Zm13.559 9.816c0-.237-.036-.45-.11-.639a1.196 1.196 0 0 0-.383-.53c-.189-.164-.454-.325-.794-.483a11.274 11.274 0 0 0-1.324-.494 16.753 16.753 0 0 1-1.717-.657 7.044 7.044 0 0 1-1.424-.85 3.82 3.82 0 0 1-.968-1.14c-.232-.433-.347-.935-.347-1.507 0-.554.122-1.056.365-1.507a3.455 3.455 0 0 1 1.023-1.168 4.85 4.85 0 0 1 1.552-.758 7.029 7.029 0 0 1 1.981-.265c.98 0 1.836.176 2.566.53.731.352 1.297.836 1.698 1.451.408.615.612 1.318.612 2.11h-2.721c0-.39-.082-.731-.246-1.023a1.672 1.672 0 0 0-.731-.703c-.322-.17-.73-.256-1.223-.256-.475 0-.871.073-1.187.22-.317.14-.554.331-.713.575a1.417 1.417 0 0 0-.237.803c0 .225.055.43.164.612.116.182.286.353.512.511.225.158.502.307.831.447.328.14.709.278 1.141.411.724.22 1.36.466 1.908.74a5.907 5.907 0 0 1 1.388.922c.372.341.652.728.84 1.16.189.432.283.922.283 1.47 0 .578-.112 1.096-.338 1.552-.225.457-.55.843-.977 1.16a4.595 4.595 0 0 1-1.524.721 7.393 7.393 0 0 1-1.982.247 7.527 7.527 0 0 1-1.945-.256 5.918 5.918 0 0 1-1.744-.794 4.001 4.001 0 0 1-1.241-1.352c-.311-.548-.466-1.196-.466-1.945h2.748c0 .414.064.764.192 1.05.128.286.307.518.539.694.237.177.517.305.84.384.328.079.688.119 1.077.119.475 0 .865-.067 1.169-.201.31-.134.539-.32.685-.557.152-.238.228-.506.228-.804Zm10.281 1.114V31.12h2.63V41h-2.474l-.156-2.365Zm.293-2.027.776-.018c0 .657-.076 1.269-.229 1.835a4.378 4.378 0 0 1-.684 1.461 3.203 3.203 0 0 1-1.151.959c-.462.225-1.007.338-1.634.338-.481 0-.926-.067-1.333-.201a2.71 2.71 0 0 1-1.041-.649 3.137 3.137 0 0 1-.676-1.14c-.158-.47-.237-1.033-.237-1.69V31.12h2.629v6.401c0 .292.034.539.101.74.073.2.173.365.301.493s.277.219.447.274c.177.055.372.082.585.082.542 0 .968-.11 1.278-.329.317-.219.539-.517.667-.895.134-.383.201-.81.201-1.278Zm6.976-3.588v11.778h-2.63V31.12h2.438l.192 1.9Zm6.254 2.93v.192a7.48 7.48 0 0 1-.255 2 4.997 4.997 0 0 1-.731 1.607c-.323.45-.724.804-1.205 1.06-.475.249-1.023.374-1.644.374-.602 0-1.126-.122-1.57-.366a3.262 3.262 0 0 1-1.123-1.022 5.907 5.907 0 0 1-.722-1.543 12.324 12.324 0 0 1-.42-1.881v-.503c.098-.718.238-1.375.42-1.972a5.683 5.683 0 0 1 .722-1.561 3.258 3.258 0 0 1 1.114-1.032c.444-.244.964-.365 1.561-.365.627 0 1.178.119 1.653.356a3.25 3.25 0 0 1 1.205 1.023c.329.444.575.974.74 1.588.17.615.255 1.297.255 2.046Zm-2.639.192v-.191c0-.42-.036-.807-.109-1.16a3.014 3.014 0 0 0-.329-.94 1.6 1.6 0 0 0-.584-.621c-.238-.152-.527-.229-.868-.229-.359 0-.666.058-.922.174a1.549 1.549 0 0 0-.612.502c-.158.22-.277.48-.356.785a5.065 5.065 0 0 0-.146 1.032v1.27c.031.45.116.854.256 1.214.14.353.356.633.648.84.292.207.676.31 1.151.31.347 0 .639-.076.876-.228.238-.158.429-.374.575-.648.153-.274.259-.59.32-.95.067-.36.1-.746.1-1.16Zm6.903-3.122v11.778h-2.629V31.12h2.438l.191 1.9Zm6.255 2.93v.192a7.44 7.44 0 0 1-.256 2 4.995 4.995 0 0 1-.73 1.607 3.48 3.48 0 0 1-1.205 1.06c-.475.249-1.023.374-1.644.374-.603 0-1.126-.122-1.571-.366a3.28 3.28 0 0 1-1.123-1.022 5.938 5.938 0 0 1-.721-1.543 12.09 12.09 0 0 1-.42-1.881v-.503c.097-.718.237-1.375.42-1.972a5.711 5.711 0 0 1 .721-1.561 3.276 3.276 0 0 1 1.114-1.032c.445-.244.965-.365 1.562-.365.627 0 1.178.119 1.652.356.481.237.883.578 1.206 1.023.328.444.575.974.739 1.588.171.615.256 1.297.256 2.046Zm-2.639.192v-.191c0-.42-.036-.807-.109-1.16a3.014 3.014 0 0 0-.329-.94 1.596 1.596 0 0 0-.585-.621c-.237-.152-.526-.229-.867-.229-.359 0-.667.058-.922.174-.25.116-.454.283-.612.502-.158.22-.277.48-.356.785a5.065 5.065 0 0 0-.146 1.032v1.27c.03.45.116.854.256 1.214.14.353.356.633.648.84.292.207.676.31 1.15.31.347 0 .639-.076.877-.228.237-.158.429-.374.575-.648.152-.274.259-.59.32-.95.067-.36.1-.746.1-1.16Zm3.853.019v-.192c0-.724.104-1.391.311-2a4.622 4.622 0 0 1 .904-1.598c.395-.45.882-.8 1.461-1.05.578-.255 1.241-.383 1.99-.383.749 0 1.416.128 2 .383.584.25 1.074.6 1.47 1.05.402.45.706.983.913 1.598.207.609.31 1.276.31 2v.192a6.23 6.23 0 0 1-.31 2 4.656 4.656 0 0 1-.913 1.597c-.396.45-.883.8-1.461 1.05-.578.25-1.242.375-1.991.375-.748 0-1.415-.125-1.999-.375a4.143 4.143 0 0 1-1.47-1.05 4.736 4.736 0 0 1-.904-1.598 6.23 6.23 0 0 1-.311-2Zm2.63-.192v.192c0 .414.037.8.11 1.16.073.358.188.675.347.949.164.268.377.478.639.63.262.152.581.228.958.228.366 0 .679-.076.941-.228.262-.152.472-.362.63-.63a3.14 3.14 0 0 0 .347-.95c.079-.359.119-.745.119-1.16v-.191c0-.402-.04-.78-.119-1.132a2.995 2.995 0 0 0-.356-.95c-.158-.28-.368-.5-.63-.657-.262-.159-.578-.238-.95-.238-.371 0-.688.08-.949.238a1.862 1.862 0 0 0-.63.657c-.159.274-.274.59-.347.95-.073.353-.11.73-.11 1.132Zm10.975-2.694V41h-2.629v-9.88h2.474l.155 2.155Zm2.977-2.218-.046 2.437a6.371 6.371 0 0 0-.465-.045 4.734 4.734 0 0 0-.484-.028 2.89 2.89 0 0 0-.968.147 1.73 1.73 0 0 0-.676.41 1.81 1.81 0 0 0-.402.667c-.085.262-.134.56-.146.895l-.529-.165c0-.639.064-1.226.191-1.762a4.892 4.892 0 0 1 .557-1.415c.25-.402.554-.712.914-.931.359-.22.77-.33 1.232-.33.146 0 .295.013.448.037.152.019.277.046.374.082Zm6.538.063v1.863h-5.753V31.12h5.753Zm-4.328-2.438h2.629v9.341c0 .286.037.506.11.658a.658.658 0 0 0 .347.32c.152.054.344.082.575.082.164 0 .311-.007.438-.019.134-.018.247-.036.338-.054l.009 1.935c-.225.073-.468.131-.73.174a5.425 5.425 0 0 1-.868.064c-.578 0-1.083-.095-1.515-.283a2.087 2.087 0 0 1-.986-.932c-.232-.426-.347-.986-.347-1.68v-9.605Z" fill="#192E50"/><path opacity=".2" d="M29.75 35.438V45.5a2.875 2.875 0 0 0 2.875 2.875H35.5a2.875 2.875 0 0 0 2.875-2.875v-7.188a2.875 2.875 0 0 0-2.875-2.874h-5.75ZM64.52 35.438h-5.75a2.875 2.875 0 0 0-2.876 2.874V45.5a2.875 2.875 0 0 0 2.876 2.875h2.874A2.875 2.875 0 0 0 64.52 45.5V35.437Z" fill="#95BE3F"/><path d="M64.52 35.437h-5.75a2.875 2.875 0 0 0-2.876 2.875V45.5a2.875 2.875 0 0 0 2.876 2.875h2.874A2.875 2.875 0 0 0 64.52 45.5V35.437Zm0 0a17.25 17.25 0 0 0-17.394-17.25 17.249 17.249 0 0 0-17.376 17.25V45.5a2.875 2.875 0 0 0 2.875 2.875H35.5a2.875 2.875 0 0 0 2.875-2.875v-7.188a2.875 2.875 0 0 0-2.875-2.875h-5.75" stroke="#95BE3F" stroke-width="2" stroke-linecap="round" stroke-linejoin="round"/></svg>