<svg viewBox="0 0 33 33" fill="none" xmlns="http://www.w3.org/2000/svg"><path opacity=".2" d="M11.627 16.555a10.45 10.45 0 0 0 4.875 4.863 1 1 0 0 0 .988-.075l3.125-2.088a.988.988 0 0 1 .95-.087l5.85 2.512a.988.988 0 0 1 .6 1.038 6 6 0 0 1-5.95 5.237 17 17 0 0 1-17-17 6 6 0 0 1 5.237-5.95.987.987 0 0 1 1.037.6l2.513 5.863a1 1 0 0 1-.075.937L11.69 15.58a1 1 0 0 0-.063.975Z" fill="#95BE3F"/><path d="M11.627 16.555a10.45 10.45 0 0 0 4.875 4.863 1 1 0 0 0 .988-.075l3.125-2.088a.988.988 0 0 1 .95-.087l5.85 2.512a.988.988 0 0 1 .6 1.038 6 6 0 0 1-5.95 5.237 17 17 0 0 1-17-17 6 6 0 0 1 5.237-5.95.987.987 0 0 1 1.037.6l2.513 5.863a1 1 0 0 1-.075.937L11.69 15.58a1 1 0 0 0-.063.975v0Z" stroke="#95BE3F" stroke-width="2" stroke-linecap="round" stroke-linejoin="round"/></svg>