<svg viewBox="0 0 33 33" fill="none" xmlns="http://www.w3.org/2000/svg"><path opacity=".2" d="m24.877 15.707-7-7 3.288-3.288a1 1 0 0 1 1.425 0l5.575 5.575a1.002 1.002 0 0 1 0 1.425l-3.288 3.288Z" fill="#95BE3F"/><path d="M12.877 27.707h-6a1 1 0 0 1-1-1v-5.588a.987.987 0 0 1 .287-.7l15-15a1 1 0 0 1 1.425 0l5.576 5.575a1.002 1.002 0 0 1 0 1.425L12.877 27.707ZM17.877 8.707l7 7" stroke="#95BE3F" stroke-width="2" stroke-linecap="round" stroke-linejoin="round"/><path d="M27.877 27.707h-15l-6.938-6.938M21.377 12.207l-12 12" stroke="#95BE3F" stroke-width="2" stroke-linecap="round" stroke-linejoin="round"/></svg>