<svg viewBox="0 0 33 33" fill="none" xmlns="http://www.w3.org/2000/svg"><path opacity=".2" d="M16.064 28.54c6.628 0 12-5.373 12-12 0-6.628-5.372-12-12-12-6.627 0-12 5.372-12 12 0 6.627 5.373 12 12 12Z" fill="#95BE3F"/><path d="M16.064 28.54c6.628 0 12-5.373 12-12 0-6.628-5.372-12-12-12-6.627 0-12 5.372-12 12 0 6.627 5.373 12 12 12Z" stroke="#95BE3F" stroke-width="2" stroke-linecap="round" stroke-linejoin="round"/><path d="M16.064 24.54a1.5 1.5 0 1 0 0-3.001 1.5 1.5 0 0 0 0 3Z" fill="#95BE3F"/><path d="M16.064 18.54v-1a3.5 3.5 0 1 0-3.5-3.5" stroke="#95BE3F" stroke-width="2" stroke-linecap="round" stroke-linejoin="round"/></svg>