<svg width="39" height="39" fill="none" xmlns="http://www.w3.org/2000/svg"><circle cx="19.5" cy="19.5" r="19.5" fill="#95BE3F"/><path d="M21.787 13.249a4.248 4.248 0 0 1 3.356 3.356l-3.356-3.356Zm0-3.399a7.647 7.647 0 0 1 6.755 6.746L21.787 9.85Zm5.905 13.526v2.55a1.7 1.7 0 0 1-1.852 1.698 16.814 16.814 0 0 1-7.332-2.608 16.566 16.566 0 0 1-5.098-5.098 16.814 16.814 0 0 1-2.609-7.366 1.7 1.7 0 0 1 1.691-1.852h2.549a1.7 1.7 0 0 1 1.7 1.461c.107.816.306 1.617.594 2.388a1.7 1.7 0 0 1-.382 1.792l-1.08 1.08a13.594 13.594 0 0 0 5.098 5.097l1.08-1.079a1.7 1.7 0 0 1 1.792-.382c.771.287 1.572.487 2.388.595a1.7 1.7 0 0 1 1.461 1.724Z" stroke="#fff" stroke-width="1.274" stroke-linecap="round" stroke-linejoin="round"/></svg>