<svg viewBox="0 0 296 96" fill="none" xmlns="http://www.w3.org/2000/svg"><path fill="#fff" d="M0 0h296v96H0z"/><path d="M60.592 44.033c.462.231.755.147.902-.21.147-.356-.02-.818-.462-1.343a.543.543 0 0 0-.63-.125c-.146.042-.335-.378-.377-.504-.378-1.091-.105-2.434.798-4.008.923-1.575 2.224-3.211 3.882-4.89a47.886 47.886 0 0 1 5.289-4.617c1.868-1.406 3.546-2.456 5.037-3.19 1.51-.735 2.56-.966 3.147-.672.315.252.336.777.064 1.553a15.875 15.875 0 0 1-1.029 2.309c-.399.776-.692 1.28-.84 1.51l-7.68 12.509c-.021.042-.063.105-.105.168-.252.398-.588 1.007-1.008 1.804-.42.798-.755 1.574-1.007 2.309-.23.734-.21 1.217.105 1.448.588.399 2.56-1.91 2.917-2.33.44-.524 1.091-1.322 1.952-2.413 1.112-1.406 2.434-3.022 3.924-4.848 1.49-1.826 3.001-3.61 4.533-5.33 1.532-1.721 2.896-3.106 4.093-4.177 1.196-1.07 2.035-1.553 2.518-1.406.462.23.546.924.231 2.078a37.97 37.97 0 0 1-1.364 4.008c-1.322 3.547-2.75 7.43-1.091 8.08.63.189 1.615-.084 2.959-.86 1.343-.777 2.854-1.805 4.512-3.086a127.965 127.965 0 0 0 4.932-3.987 210.039 210.039 0 0 0 4.155-3.589 78.101 78.101 0 0 1 1.91-1.679c.377-.314 3.127-2.539 3.567-2.371.441.21-2.014 4.197-2.413 4.785-.021.02-.021.042-.042.063-.462.734-1.217 1.847-2.267 3.379-1.238 1.825-2.665 3.924-4.26 6.338a184.382 184.382 0 0 0-4.533 7.198c-1.427 2.372-2.518 4.45-3.274 6.191-.734 1.763-.902 2.917-.483 3.442.483.42 1.239.273 1.763.084.798-.21.441-.945-.147-.735-.041 0-.084 0-.105.021-.503.19-.902.273-.839-.42.105-.839.714-2.203 1.784-4.092 1.07-1.889 2.392-4.03 3.945-6.422a526.994 526.994 0 0 1 4.722-7.114c2.456-3.61 4.24-6.38 5.394-8.31.021-.043.042-.085.084-.148.231-.399.567-.986.965-1.784.399-.797.693-1.553.861-2.287.189-.735.063-1.217-.378-1.448-.819-.441-3.274 1.343-4.134 2.036a1.157 1.157 0 0 0-.168.125c-.546.441-1.595 1.322-3.127 2.645-1.7 1.49-3.631 3.127-5.772 4.91a113.438 113.438 0 0 1-5.813 4.597c-1.742 1.259-2.896 1.825-3.442 1.72-.21-.125-.189-.608.042-1.468.252-.861.609-1.931 1.05-3.19 1.385-3.946 3.21-9.004 1.196-9.78-.777-.21-1.952.356-3.547 1.72-1.574 1.344-3.295 3.044-5.142 5.1a157.934 157.934 0 0 0-5.057 5.898 186.76 186.76 0 0 0-3.295 4.155c-.105.147-.231.273-.336.42-1.93 2.54-2.204 2.707-.797.503.23-.398.503-.84.818-1.364l7.681-12.508c.273-.44.65-1.112 1.091-1.994a8.784 8.784 0 0 0 .903-2.644c.147-.881-.084-1.532-.693-1.973-.797-.42-2.035-.272-3.714.441-1.68.693-3.526 1.784-5.54 3.232a45.644 45.644 0 0 0-5.646 4.848c-1.763 1.784-3.127 3.547-4.093 5.289-.944 1.741-1.217 3.253-.776 4.554a3.482 3.482 0 0 0 1.7 1.846Zm46.254-2.812c-.776-.02-1.658.336-2.602 1.07a12.688 12.688 0 0 0-2.477 2.498c-.713.944-1.112 1.763-1.175 2.456-.021 1.028.357 1.595 1.133 1.72.777.126 1.742 0 2.855-.398a24.115 24.115 0 0 0 3.169-1.386c1.007-.545 1.721-.965 2.14-1.259 1.071-.776.378-.986-.105-.671-.231.147-.755.44-1.595.86-.839.399-1.763.798-2.77 1.196-1.007.4-1.868.63-2.602.693-.735.063-1.092-.168-1.092-.693.042-.356.21-.755.483-1.196.294-.461.546-.84.777-1.112.314.294.839.315 1.532.042a7.258 7.258 0 0 0 2.056-1.238c.651-.546 1.071-1.07 1.218-1.574.146-.504-.168-.84-.945-1.008Zm-.42 1.155c.525-.147.525-.063.252.251-.315.315-.755.672-1.343 1.07-.587.378-1.091.651-1.49.798-1.532.504 1.952-1.91 2.581-2.12Zm-5.162 17.943c.713.357 1.427-1.112 1.28-1.112l8.332-13.578c.377-.63.44-.672.65-.798.084-.042.252-.147.483-.315 1.238-1.07 3.022-3.148 5.33-6.275a130.92 130.92 0 0 0 6.359-9.318c0-.02 0-.02.021-.042.168-.273.504-.86 1.029-1.763a35.223 35.223 0 0 0 1.49-2.938c.482-1.05.713-1.91.713-2.56.021-.672-.398-.882-1.259-.63-.546.252-1.574 1.448-3.064 3.589-1.49 2.12-3.127 4.638-4.932 7.513a375.91 375.91 0 0 0-4.911 8.017c-1.469 2.456-2.434 4.134-2.917 5.037-1.826 2.938-3.316 5.351-4.491 7.22-4.134 6.715-4.764 7.66-4.113 7.953Zm12.004-18.552c1.07-1.742 2.141-3.547 3.253-5.415 2.602-4.449 5.331-8.96 8.122-12.822 1.994-2.603 1.532-.903-1.91 4.806a189.764 189.764 0 0 1-4.722 7.198c-1.7 2.476-3.253 4.596-4.638 6.359-.504.608-.504.483-.105-.126Zm7.786-3.42c-.336-.022-.588.188-.609.503 0 .02-.062.063-.167.084-.21.126-.567.273-.483.504.42 1.007 2.833-1.008 1.259-1.092Zm-4.68 9.968c.63 0 1.679-.21 3.127-.63 1.469-.42 2.665-.881 3.568-1.385.545-.378.252-.84-.189-.587-.147.083-.567.251-1.301.524-.714.252-1.511.483-2.372.714-.86.23-1.553.315-2.098.252-.525-.063-.672-.357-.441-.903.315-.63.776-1.406 1.385-2.33.63-.944 1.217-1.783 1.742-2.539.021-.042.063-.084.084-.105.189-.252.357-.524.168-.84-.378-.587-2.099.651-1.763 1.281a1.12 1.12 0 0 0-.147.21c-.923 1.259-4.491 6.338-1.763 6.338Zm5.645-14.544a309.26 309.26 0 0 1 7.933-1.26c.672-.104.609.064.273.547-.063.084-.105.188-.168.293a1147.764 1147.764 0 0 1-14.984 23.925c-.735 1.133-1.448 2.267-2.183 3.42-.524 1.24 0 1.7 1.239.777.398-.314.482-.797-.021-.797 3.148-4.932 6.275-9.864 9.381-14.817.209-.356.272-.42.356-.461.063-.021.126-.063.273-.21 1.28-1.155 2.854-2.917 4.764-5.289a91.086 91.086 0 0 0 5.499-7.576c.272-.44.482-.504.902-.504.105-.02.21-.02.336-.042 3.714-.44 7.534-.608 11.479-.545.756.042.756-.567.063-.567-3.672-.02-7.261.063-10.745.294-.147 0-.315 0-.461.02h-.147c-.609.085-.63 0-.126-.776.021-.02.021-.042.021-.063 1.679-2.833 2.665-5.225 2.938-7.135.168-1.47-.357-1.658-1.553-.546-.777.693-2.246 2.855-4.407 6.485-.063.105-.105.19-.168.294-.273.44-.525.86-.777 1.301-.461.882-.713.924-2.182 1.091-2.54.315-5.142.714-7.786 1.155-2.729.671.189 1.763.251 1.112v-.126Zm10.955-3.316c.105-.189.231-.377.336-.566.084-.147.168-.273.252-.42 1.868-3.127 3.169-5.12 3.925-5.96-.609 2.035-1.679 4.386-3.232 7.051-.336.546-.399.63-.84.63l-.629.063c-.252.02-.084-.315.188-.798Zm-1.322 2.204c.273-.483.63-.546 1.113-.567.042 0 .084 0 .105-.02h.062c.441-.043.42-.022-.041.755-2.267 3.567-4.45 6.59-6.569 9.045-.819.902-.882.818-.147-.273 1.406-2.161 2.749-4.302 3.987-6.464.525-.86 1.008-1.7 1.49-2.476Zm8.437 12.487c-.567.315-1.238.587-2.015.818-.776.231-1.364.21-1.784-.063-.398-.273-.335-.965.189-2.12a.484.484 0 0 0-.021-.503c-.168-.252-.461-.294-.713-.147-2.393 1.658-4.114 2.77-5.163 3.379-1.049.609-1.595.84-1.658.693-.042-.147.273-.525.923-1.155.651-.65 1.47-1.322 2.414-2.035.944-.714 1.847-1.239 2.707-1.574.861-.336 1.448-.273 1.805.21.021.062-.021.104-.042.167-.021.063-.063.105-.063.168.147.273.567.525.84.44.272-.083.482-.335.398-.608-.461-1.07-1.259-1.532-2.392-1.343-1.133.168-2.33.672-3.568 1.532s-2.245 1.763-3.022 2.707c-.776.945-1.07 1.637-.839 2.078.188.315.776.315 1.783-.042 1.029-.357 2.624-1.238 4.785-2.644.399-.252.42-.273.399.126v.105c.021.944.378 1.469 1.028 1.595.651.105 1.407.02 2.225-.273.84-.315 1.532-.63 2.057-.944.671-.483.482-.966-.273-.567Zm15.74-10.347c.378.819 1.553.147 1.217-.86-.063-.084-.063-.126-.126-.147-.042-.042-.084-.063 0-.504.231-.818.987-1.783 2.267-2.938 1.28-1.154 2.749-2.245 4.428-3.274 1.679-1.028 3.253-1.742 4.701-2.182 1.448-.44 2.476-.336 3.085.294.525.713.462 1.993-.168 3.82-.609 1.825-1.553 3.924-2.812 6.253a137.93 137.93 0 0 1-3.925 6.863 282.435 282.435 0 0 1-3.567 5.708c-.693 1.07-1.176 1.847-1.448 2.33-.147.252-.273.461-.378.65-.483.819-.504.86-1.826 1.448-3.715 1.658-7.345 3.505-10.85 5.583-.483.272-1.007.902-.693 1.469.189.273.546.294.861.23.65-.146 1.28-.356 1.637-.923.168-.336.294-.462.629-.692a106.011 106.011 0 0 1 7.828-4.03c.105-.042.567-.252.798-.377-.105.188-.273.461-.378.65-.063.084-.105.147-.126.168-.063.126-.147.252-.21.378-.189.294-.357.587-.545.902-.42.84.209 1.133.629.504l.504-.819c.147-.252.294-.503.441-.734.063-.105.105-.21.167-.315.735-1.217.819-1.343 2.288-1.994.881-.398 2.183-.965 3.925-1.7a97.507 97.507 0 0 1 5.813-2.14 49.913 49.913 0 0 1 6.296-1.658c2.077-.399 3.861-.504 5.393-.273 1.532.23 2.561.923 3.085 2.099.084.272.252.545.588.44.273-.147.168-.482.063-.755 0-.021 0-.021-.021-.042-2.707-6.569-19.119.147-24.282 2.33-1.091.503-1.196.482-.503-.588.482-.777 1.133-1.784 1.931-3.022 1.406-2.12 2.917-4.512 4.575-7.199 1.658-2.707 3.043-5.267 4.155-7.723 1.133-2.455 1.616-4.386 1.427-5.792-.273-1.26-.881-1.994-1.868-2.225-.965-.23-2.077-.126-3.358.273a21.835 21.835 0 0 0-3.609 1.511c-1.134.609-1.994 1.113-2.603 1.532-.692.44-1.532 1.05-2.518 1.868a12.263 12.263 0 0 0-2.434 2.707c-.651.987-.798 1.952-.483 2.896Zm26.317 25.52c.714.357 1.427-1.112 1.28-1.112l8.332-13.578c.378-.63.441-.672.65-.798.084-.042.252-.147.483-.315 1.238-1.07 3.022-3.148 5.331-6.275a131.59 131.59 0 0 0 6.359-9.318c0-.02 0-.02.021-.042.168-.273.503-.86 1.028-1.763a34.92 34.92 0 0 0 1.49-2.938c.483-1.05.714-1.91.714-2.56.021-.672-.399-.882-1.26-.63-.545.252-1.574 1.448-3.064 3.589-1.49 2.12-3.127 4.638-4.931 7.513a375.91 375.91 0 0 0-4.911 8.017c-1.469 2.456-2.435 4.134-2.917 5.037-1.826 2.938-3.316 5.351-4.492 7.22-4.134 6.715-4.764 7.66-4.113 7.953Zm12.004-18.552c1.071-1.742 2.141-3.547 3.253-5.415 2.603-4.449 5.331-8.96 8.122-12.822 1.994-2.603 1.532-.903-1.91 4.806a189.764 189.764 0 0 1-4.722 7.198c-1.7 2.476-3.253 4.596-4.638 6.359-.503.608-.503.483-.105-.126Zm6.296 6.61c.399-.419.882-1.196 1.155-1.7.167-.335.335-.314.524-.146.273.189.798.42 1.868 0 1.007-.462.84-1.26.294-.756-.609.567-2.036.609-2.12-.671-.042-1.763-1.637-2.162-1.952-1.511-.23.671.252 1.616.756 2.12.147.104.126.188.042.293-.021.042-.063.105-.105.168-.441.903-1.238 1.973-1.805 2.309-1.742.965-3.253-1.092.84-5.814.084-.104.189-.104.293-.104.231.02.567-.042 1.155-.651.315-.777-.105-1.05-.756-.819-.399.105-.923.525-1.574 1.239-1.721 1.993-2.602 3.63-2.623 4.868-.021 1.239.378 1.973 1.238 2.225.861.252 1.784-.105 2.77-1.05Zm7.618-9.044c-.986.944-1.909 2.12-2.749 3.504-.818 1.385-1.322 2.77-1.511 4.135-.189 2.245.714 2.938 2.036 2.707.797-.189 1.889-.819 3.274-1.889s2.77-2.224 4.176-3.42c3.148-2.729 5.52-4.723 3.232-1.071l-4.176 6.695-.126.189c-.357.587-.609.965-1.217 1.469a32.178 32.178 0 0 0-4.408 4.512c-1.406 1.742-2.497 3.526-3.274 5.372-.021.042-.021.084-.042.126-.272.63-.818 2.036.063 2.288.609.105 1.365-.42 2.309-1.532.944-1.112 1.889-2.435 2.833-3.967a134.722 134.722 0 0 0 2.372-3.903c.314-.525.545-.903.692-1.175.189-.315.357-.567.462-.798.273-.567.525-.965 1.259-1.49.168-.126.231-.294.189-.525-.105-.314.126-.65.357-.965.042-.063.084-.147.126-.21.252-.399.503-.797.734-1.196.336-.567.672-1.133 1.029-1.679.272-.44.566-.86.86-1.301a25.614 25.614 0 0 0 1.931-3.127c.042-.084.084-.168.126-.231.293-.504.461-.944.482-1.343.021-.399-.356-.65-1.133-.735-.588.147-1.469.672-2.644 1.595a78.774 78.774 0 0 0-3.757 3.106c-1.343 1.155-2.56 2.183-3.672 3.043-1.113.86-1.889 1.322-2.351 1.343-.462.021-.651-.482-.588-1.553.063-.524.294-1.259.693-2.203.399-.944.881-1.847 1.427-2.665.546-.819 1.07-1.323 1.553-1.49 1.364-.336.462-2.267-.567-1.616Zm-2.056 20.63c-.357.608-2.938 4.868-1.574 1.49.545-1.134 4.554-6.884 4.974-7.01.44-.126-2.624 4.344-3.295 5.372-.063.063-.084.126-.105.147Zm23.169-17.483c.063-.062.126-.146.189-.21.692-.692.881-.88.294.043a784.396 784.396 0 0 0-4.345 7.534c-1.196 2.078-2.182 3.82-2.98 5.204-.377.693.231.777.525.315.063-.063.567-.881 1.511-2.413a600.73 600.73 0 0 0 3.568-5.73 510.232 510.232 0 0 0 4.281-6.988c.42-.714.776-1.26 1.091-1.658a17.55 17.55 0 0 1 1.322-1.448 68.114 68.114 0 0 0 4.387-4.45 52.037 52.037 0 0 0 4.365-5.519c.86-1.28 1.322-2.161 1.385-2.602-.126-1.05-1.595-.756-2.33-.126-.902.735-1.972 1.784-3.19 3.148a33.97 33.97 0 0 0-3.252 4.24 170.897 170.897 0 0 0-2.834 4.595c-.398.651-.755 1.197-1.112 1.616-.357.42-.797.882-1.343 1.386-.441.44-.525.356-.756.23-.104-.084-.293-.167-.566-.252-1.05-.23-2.225.042-3.505.798-1.28.756-2.518 1.742-3.673 2.938-1.154 1.196-2.077 2.372-2.77 3.505-.692 1.133-.965 1.952-.818 2.476.252.567.818.693 1.679.336.86-.336 1.846-.923 2.98-1.784a58.538 58.538 0 0 0 3.295-2.728 70.976 70.976 0 0 0 2.602-2.456Zm8.898-10.367c-.231.231-.44.462-.671.714-1.385 1.49-2.708 2.896-.819-.126.609-.945 1.364-1.952 2.246-3.064.902-1.113 1.721-2.078 2.455-2.854.672-.672 2.854-2.582 1.238-.126a42.305 42.305 0 0 1-4.449 5.456Zm-8.835 8.122c.399.084.399.23.126.483-1.868 1.783-3.652 3.4-5.394 4.848s-3.106 2.434-4.113 3c-.672.357-.504-.104-.084-.86.462-.818 1.259-1.826 2.392-3.043a22.797 22.797 0 0 1 3.673-3.21c1.301-.924 2.435-1.323 3.4-1.218Z" fill="#000"/><path d="M60.514 78.643h4.932v1.018h-6.011V68.87h1.078v9.772Zm9.492-6.874c1.14 0 2.06.406 2.759 1.218.709.801 1.064 1.752 1.064 2.851 0 .113-.01.272-.031.478H67.03c.103.78.432 1.403.986 1.865.566.452 1.26.678 2.081.678.586 0 1.09-.118 1.51-.354.432-.247.756-.566.972-.956l.894.524a3.66 3.66 0 0 1-1.387 1.295c-.586.318-1.254.478-2.004.478-1.213 0-2.2-.38-2.96-1.141-.76-.76-1.14-1.726-1.14-2.898 0-1.15.375-2.112 1.125-2.882s1.716-1.156 2.898-1.156Zm0 .986c-.802 0-1.475.242-2.02.725-.534.472-.852 1.089-.955 1.85h5.75c-.103-.812-.417-1.444-.94-1.897a2.721 2.721 0 0 0-1.835-.678Zm12.069-.801h1.017v7.398c0 1.11-.38 1.984-1.14 2.62-.761.638-1.67.956-2.729.956-1.808 0-3.026-.626-3.653-1.88l.894-.509c.462.935 1.382 1.403 2.759 1.403.884 0 1.577-.236 2.08-.71.515-.462.772-1.088.772-1.88V78.15c-.71 1.13-1.747 1.696-3.114 1.696-1.1 0-2.04-.39-2.82-1.172-.771-.78-1.157-1.736-1.157-2.867 0-1.13.386-2.086 1.156-2.867.781-.78 1.722-1.171 2.821-1.171 1.367 0 2.404.565 3.114 1.695v-1.51ZM76.88 77.98c.586.585 1.305.878 2.158.878s1.572-.293 2.158-.878c.586-.596.879-1.32.879-2.174 0-.853-.293-1.572-.879-2.158-.586-.596-1.305-.894-2.158-.894s-1.572.298-2.158.894c-.586.586-.878 1.305-.878 2.158s.292 1.578.878 2.174Zm14.994-6.027h1.017v7.707h-1.017v-1.51c-.71 1.13-1.747 1.695-3.114 1.695-1.1 0-2.04-.39-2.82-1.172-.771-.78-1.157-1.736-1.157-2.867 0-1.13.386-2.086 1.156-2.867.781-.78 1.722-1.171 2.821-1.171 1.367 0 2.405.565 3.114 1.695v-1.51Zm-5.195 6.027c.586.585 1.305.878 2.158.878s1.572-.293 2.158-.878c.586-.596.879-1.32.879-2.174 0-.853-.293-1.572-.879-2.158-.586-.596-1.305-.894-2.158-.894s-1.572.298-2.158.894c-.585.586-.878 1.305-.878 2.158s.293 1.578.878 2.174Zm8.366 1.68V68.409h1.017V79.66h-1.017Zm11.345-10.79c1.47 0 2.682.524 3.638 1.572.966 1.038 1.449 2.312 1.449 3.823 0 1.51-.483 2.79-1.449 3.838-.956 1.038-2.168 1.557-3.638 1.557h-4.161V68.87h4.161Zm0 9.772c1.182 0 2.148-.421 2.898-1.264.76-.842 1.141-1.88 1.141-3.113s-.381-2.271-1.141-3.114c-.75-.842-1.716-1.264-2.898-1.264h-3.082v8.755h3.082Zm7.795-5.41c.473-.935 1.285-1.403 2.436-1.403v.987c-.699 0-1.28.206-1.742.617-.462.41-.694 1.058-.694 1.942v4.285h-1.017v-7.707h1.017v1.28Zm9.991-1.28h1.018v7.708h-1.018v-1.51c-.709 1.13-1.747 1.695-3.113 1.695-1.1 0-2.04-.39-2.821-1.172-.771-.78-1.156-1.736-1.156-2.867 0-1.13.385-2.086 1.156-2.867.781-.78 1.721-1.171 2.821-1.171 1.366 0 2.404.565 3.113 1.695v-1.51Zm-5.194 6.028c.586.585 1.305.878 2.158.878s1.572-.293 2.158-.878c.585-.596.878-1.32.878-2.174 0-.853-.293-1.572-.878-2.158-.586-.596-1.305-.894-2.158-.894s-1.572.298-2.158.894c-.586.586-.879 1.305-.879 2.158s.293 1.578.879 2.174Zm12.219-8.308c-.75-.062-1.31.066-1.68.385-.36.318-.54.848-.54 1.587v.309h2.22v.986h-2.22v6.72h-1.017v-6.72h-1.31v-.986h1.31v-.308c0-1.008.277-1.768.832-2.282.566-.524 1.367-.75 2.405-.678v.987Zm5.469 3.267h-2.219v4.67c0 .422.082.725.246.91.165.175.411.267.74.278.329 0 .74-.01 1.233-.031v.894c-1.079.164-1.89.087-2.435-.232-.534-.318-.802-.924-.802-1.818v-4.67h-1.618v-.987h1.618v-1.85l1.018-.308v2.158h2.219v.986Zm4.79-1.171c1.14 0 2.06.406 2.759 1.218.709.801 1.063 1.752 1.063 2.851 0 .113-.01.272-.03.478h-6.767c.103.78.432 1.403.986 1.865.566.452 1.259.678 2.081.678.586 0 1.09-.118 1.511-.354.431-.247.755-.566.971-.956l.894.524a3.664 3.664 0 0 1-1.387 1.295c-.586.318-1.254.478-2.004.478-1.213 0-2.199-.38-2.96-1.141-.76-.76-1.14-1.726-1.14-2.898 0-1.15.375-2.112 1.125-2.882s1.716-1.156 2.898-1.156Zm0 .986c-.802 0-1.475.242-2.019.725-.535.472-.853 1.089-.956 1.85h5.749c-.102-.812-.416-1.444-.94-1.897a2.72 2.72 0 0 0-1.834-.678Zm6.458.478c.473-.935 1.284-1.403 2.435-1.403v.987c-.698 0-1.279.206-1.741.617-.463.41-.694 1.058-.694 1.942v4.285h-1.017v-7.707h1.017v1.28Zm14.311-1.28h1.017v7.708h-1.017v-1.51c-.709 1.13-1.747 1.695-3.114 1.695-1.099 0-2.039-.39-2.82-1.172-.771-.78-1.156-1.736-1.156-2.867 0-1.13.385-2.086 1.156-2.867.781-.78 1.721-1.171 2.82-1.171 1.367 0 2.405.565 3.114 1.695v-1.51Zm-5.195 6.028c.586.585 1.305.878 2.158.878s1.573-.293 2.158-.878c.586-.596.879-1.32.879-2.174 0-.853-.293-1.572-.879-2.158-.585-.596-1.305-.894-2.158-.894s-1.572.298-2.158.894c-.585.586-.878 1.305-.878 2.158s.293 1.578.878 2.174Zm11.973-6.212c.935 0 1.67.288 2.204.863.545.565.817 1.33.817 2.297v4.732h-1.017v-4.732c0-.689-.185-1.223-.555-1.603-.36-.38-.874-.57-1.542-.57-.739 0-1.341.236-1.803.708-.462.463-.694 1.182-.694 2.158v4.039H165.4v-7.707h1.017v1.202c.576-.925 1.439-1.387 2.59-1.387Zm11.616-2.898h1.017v10.79h-1.017v-1.51c-.709 1.13-1.747 1.695-3.114 1.695-1.099 0-2.039-.39-2.82-1.172-.771-.78-1.156-1.736-1.156-2.867 0-1.13.385-2.086 1.156-2.867.781-.78 1.721-1.171 2.82-1.171 1.367 0 2.405.565 3.114 1.695v-4.593Zm-5.195 9.11c.586.585 1.306.878 2.158.878.853 0 1.573-.293 2.158-.878.586-.596.879-1.32.879-2.174 0-.853-.293-1.572-.879-2.158-.585-.596-1.305-.894-2.158-.894-.852 0-1.572.298-2.158.894-.585.586-.878 1.305-.878 2.158s.293 1.578.878 2.174Zm13.453.662h4.932v1.018h-6.011V68.87h1.079v9.772Zm12.559-6.69h1.018v7.708h-1.018v-1.51c-.709 1.13-1.746 1.695-3.113 1.695-1.1 0-2.04-.39-2.821-1.172-.771-.78-1.156-1.736-1.156-2.867 0-1.13.385-2.086 1.156-2.867.781-.78 1.721-1.171 2.821-1.171 1.367 0 2.404.565 3.113 1.695v-1.51Zm-5.194 6.028c.586.585 1.305.878 2.158.878s1.572-.293 2.158-.878c.586-.596.878-1.32.878-2.174 0-.853-.292-1.572-.878-2.158-.586-.596-1.305-.894-2.158-.894s-1.572.298-2.158.894c-.586.586-.879 1.305-.879 2.158s.293 1.578.879 2.174Zm17.645-6.027h1.048l-2.374 7.707h-1.11l-1.988-6.212-1.988 6.212h-1.11l-2.374-7.707h1.048l1.896 6.397 2.019-6.397h1.018l2.019 6.397 1.896-6.397Zm8.131 0h1.079l-3.299 8.416c-.298.76-.724 1.356-1.279 1.788-.545.442-1.156.637-1.834.585v-.955c.925.103 1.628-.432 2.111-1.603l.201-.478-3.453-7.753h1.079l2.898 6.458 2.497-6.458Zm5.568-.185c1.14 0 2.06.406 2.759 1.218.709.801 1.063 1.752 1.063 2.851 0 .113-.01.272-.03.478h-6.767c.103.78.432 1.403.987 1.865.565.452 1.258.678 2.08.678.586 0 1.09-.118 1.511-.354.431-.247.755-.566.971-.956l.894.524a3.664 3.664 0 0 1-1.387 1.295c-.586.318-1.254.478-2.004.478-1.213 0-2.199-.38-2.959-1.141-.761-.76-1.141-1.726-1.141-2.898 0-1.15.375-2.112 1.125-2.882s1.716-1.156 2.898-1.156Zm0 .986c-.802 0-1.475.242-2.019.725-.535.472-.853 1.089-.956 1.85h5.749c-.102-.812-.416-1.444-.94-1.897a2.72 2.72 0 0 0-1.834-.678Zm6.458.478c.473-.935 1.284-1.403 2.435-1.403v.987c-.698 0-1.279.206-1.741.617-.463.41-.694 1.058-.694 1.942v4.285h-1.017v-7.707h1.017v1.28Z" fill="#9BC24A"/></svg>