<svg width="64" height="64" fill="none" xmlns="http://www.w3.org/2000/svg"><path opacity=".2" d="M22.995 31.025a20.782 20.782 0 0 0 9.696 9.67 1.989 1.989 0 0 0 1.964-.148l6.215-4.152a1.965 1.965 0 0 1 1.89-.174l11.634 4.997a1.963 1.963 0 0 1 1.193 2.063 11.933 11.933 0 0 1-11.833 10.417 33.81 33.81 0 0 1-33.81-33.81A11.933 11.933 0 0 1 20.36 8.055a1.964 1.964 0 0 1 2.064 1.193l4.997 11.66a1.99 1.99 0 0 1-.15 1.864l-4.151 6.314a1.99 1.99 0 0 0-.125 1.94Z" fill="#95BE3F"/><path d="M22.995 31.025a20.783 20.783 0 0 0 9.696 9.67 1.989 1.989 0 0 0 1.964-.148l6.215-4.152a1.965 1.965 0 0 1 1.89-.174l11.634 4.997a1.963 1.963 0 0 1 1.193 2.063 11.933 11.933 0 0 1-11.833 10.417 33.81 33.81 0 0 1-33.81-33.81A11.933 11.933 0 0 1 20.36 8.055a1.964 1.964 0 0 1 2.064 1.193l4.997 11.66a1.99 1.99 0 0 1-.15 1.864l-4.151 6.314a1.99 1.99 0 0 0-.125 1.94v0Z" stroke="#192E50" stroke-width="2" stroke-linecap="round" stroke-linejoin="round"/></svg>