<svg viewBox="0 0 35 35" fill="none" xmlns="http://www.w3.org/2000/svg"><path d="M17.493 24.32v-3.699" stroke="#95BE3F" stroke-width="2.5" stroke-linecap="round" stroke-linejoin="round"/><path clip-rule="evenodd" d="M26.527 7.774a4.45 4.45 0 0 1 4.448 4.462v5.017c-3.588 2.1-8.327 3.369-13.49 3.369-5.162 0-9.887-1.269-13.475-3.369v-5.031a4.45 4.45 0 0 1 4.463-4.448h18.054Z" stroke="#95BE3F" stroke-width="2.5" stroke-linecap="round" stroke-linejoin="round"/><path d="M22.597 7.767v-.533a3.224 3.224 0 0 0-3.223-3.223h-3.762a3.224 3.224 0 0 0-3.223 3.223v.533M4.046 22.58l.276 3.659a4.728 4.728 0 0 0 4.713 4.372H25.95a4.728 4.728 0 0 0 4.713-4.372l.276-3.659" stroke="#95BE3F" stroke-width="2.5" stroke-linecap="round" stroke-linejoin="round"/></svg>